<?xml version="1.0" standalone="no"?>
<!DOCTYPE svg PUBLIC "-//W3C//DTD SVG 1.1//EN" "http://www.w3.org/Graphics/SVG/1.1/DTD/svg11.dtd" >
<svg xmlns="http://www.w3.org/2000/svg">
<metadata>Generated by IcoMoon</metadata>
<defs>
<font id="nucleo-glyph" horiz-adv-x="1024">
<font-face units-per-em="1024" ascent="960" descent="-64" />
<missing-glyph horiz-adv-x="1024" />
<glyph unicode="&#x20;" horiz-adv-x="512" d="" />
<glyph unicode="&#xe600;" glyph-name="weather-glyph_celsius" d="M96 800c0-70.4 57.6-128 128-128s128 57.6 128 128-57.6 128-128 128-128-57.6-128-128zM224 864c35.2 0 64-28.8 64-64s-28.8-64-64-64-64 28.8-64 64 28.8 64 64 64zM704 704c60.8 0 121.6-16 176-48 16-9.6 35.2-3.2 44.8 12.8 6.4 16 3.2 35.2-12.8 44.8-64 35.2-134.4 54.4-208 54.4-230.4 0-416-185.6-416-416s185.6-416 416-416c70.4 0 140.8 19.2 201.6 51.2 16 9.6 22.4 28.8 12.8 44.8s-28.8 22.4-44.8 12.8c-51.2-28.8-108.8-44.8-169.6-44.8-195.2 0-352 156.8-352 352s156.8 352 352 352z" />
<glyph unicode="&#xe601;" glyph-name="weather-glyph_cloud-13" d="M857.6 508.8c-25.6 166.4-172.8 291.2-345.6 291.2-150.4 0-281.6-92.8-329.6-230.4-108.8-28.8-182.4-121.6-182.4-233.6 0-124.8 96-230.4 224-240h611.2c105.6 9.6 188.8 102.4 188.8 208 0 99.2-70.4 182.4-166.4 204.8z" />
<glyph unicode="&#xe602;" glyph-name="weather-glyph_cloud-14" d="M640 832c-163.2 0-307.2-105.6-361.6-256-6.4 0-16 0-22.4 0-140.8 0-256-115.2-256-256s115.2-256 256-256h416c3.2 0 9.6 0 12.8 3.2 195.2 22.4 339.2 185.6 339.2 380.8 0 211.2-172.8 384-384 384z" />
<glyph unicode="&#xe603;" glyph-name="weather-glyph_cloud-drop" d="M860.8 636.8c-28.8 166.4-172.8 291.2-348.8 291.2-147.2 0-278.4-92.8-332.8-230.4-102.4-28.8-179.2-124.8-179.2-233.6 0-124.8 96-227.2 224-240h144c16 28.8 38.4 60.8 67.2 102.4 19.2 25.6 44.8 38.4 76.8 38.4s57.6-12.8 76.8-38.4c28.8-38.4 51.2-73.6 67.2-102.4h176c0 0 3.2 0 3.2 0 108.8 12.8 188.8 102.4 188.8 208 0 99.2-67.2 182.4-163.2 204.8zM640 89.6c0 54.4-64 147.2-102.4 198.4-12.8 16-38.4 16-51.2 0-38.4-51.2-102.4-144-102.4-198.4 0-76.8 64-121.6 128-121.6s128 44.8 128 121.6z" />
<glyph unicode="&#xe604;" glyph-name="weather-glyph_cloud-fog-31" d="M179.2 697.6c-102.4-28.8-179.2-124.8-179.2-233.6 0-6.4 0-12.8 0-19.2 0-16 16-28.8 32-28.8h960c9.6 0 16 3.2 22.4 9.6s9.6 16 9.6 25.6c-6.4 89.6-73.6 163.2-163.2 185.6-28.8 166.4-172.8 291.2-348.8 291.2-147.2 0-278.4-92.8-332.8-230.4zM992 320h-960c-19.2 0-32-12.8-32-32s12.8-32 32-32h960c19.2 0 32 12.8 32 32s-12.8 32-32 32zM896 160c0 19.2-12.8 32-32 32h-704c-19.2 0-32-12.8-32-32s12.8-32 32-32h704c19.2 0 32 12.8 32 32zM768 32c0 19.2-12.8 32-32 32h-448c-19.2 0-32-12.8-32-32s12.8-32 32-32h448c19.2 0 32 12.8 32 32z" />
<glyph unicode="&#xe605;" glyph-name="weather-glyph_cloud-fog-32" d="M860.8 604.8c-28.8 166.4-172.8 291.2-348.8 291.2-147.2 0-278.4-92.8-332.8-230.4-102.4-28.8-179.2-124.8-179.2-233.6 0-41.6 9.6-80 28.8-112 0 0 3.2 0 3.2 0h320c54.4 0 96-41.6 96-96 0-12.8-3.2-22.4-6.4-32h390.4c0 0 3.2 0 3.2 0 108.8 12.8 188.8 102.4 188.8 208 0 99.2-67.2 182.4-163.2 204.8zM352 256h-320c-19.2 0-32-12.8-32-32s12.8-32 32-32h320c19.2 0 32 12.8 32 32s-12.8 32-32 32zM160 96c0-19.2 12.8-32 32-32h320c19.2 0 32 12.8 32 32s-12.8 32-32 32h-320c-19.2 0-32-12.8-32-32z" />
<glyph unicode="&#xe606;" glyph-name="weather-glyph_cloud-hail" d="M860.8 668.8c-28.8 166.4-172.8 291.2-348.8 291.2-147.2 0-278.4-92.8-332.8-230.4-102.4-28.8-179.2-124.8-179.2-233.6 0-124.8 96-227.2 224-240h96v128c0 19.2 12.8 32 32 32s32-12.8 32-32v-128h96v64c0 19.2 12.8 32 32 32s32-12.8 32-32v-64h96v128c0 19.2 12.8 32 32 32s32-12.8 32-32v-128h128c0 0 3.2 0 3.2 0 108.8 12.8 188.8 102.4 188.8 208 0 99.2-67.2 182.4-163.2 204.8zM384 64v32c0 19.2-12.8 32-32 32s-32-12.8-32-32v-32c0-19.2 12.8-32 32-32s32 12.8 32 32zM544 0v32c0 19.2-12.8 32-32 32s-32-12.8-32-32v-32c0-19.2 12.8-32 32-32s32 12.8 32 32zM704 64v32c0 19.2-12.8 32-32 32s-32-12.8-32-32v-32c0-19.2 12.8-32 32-32s32 12.8 32 32zM320 224c0-19.2 12.8-32 32-32s32 12.8 32 32v32h-64v-32zM640 224c0-19.2 12.8-32 32-32s32 12.8 32 32v32h-64v-32zM480 160c0-19.2 12.8-32 32-32s32 12.8 32 32v96h-64v-96z" />
<glyph unicode="&#xe607;" glyph-name="weather-glyph_cloud-light" d="M860.8 668.8c-28.8 166.4-172.8 291.2-348.8 291.2-147.2 0-278.4-92.8-332.8-230.4-102.4-28.8-179.2-124.8-179.2-233.6 0-124.8 96-227.2 224-240h102.4c3.2 6.4 6.4 16 9.6 22.4l128 192c19.2 25.6 48 41.6 80 41.6 19.2 0 38.4-6.4 54.4-16 44.8-28.8 54.4-89.6 25.6-134.4l-28.8-41.6h12.8c35.2 0 67.2-19.2 83.2-48 3.2-6.4 3.2-9.6 6.4-16h134.4c0 0 3.2 0 3.2 0 108.8 12.8 188.8 102.4 188.8 208 0 99.2-67.2 182.4-163.2 204.8zM563.2 441.6c-16 9.6-35.2 6.4-44.8-9.6l-128-192c-6.4-9.6-6.4-22.4 0-32s16-16 28.8-16h137.6l-99.2-176c-9.6-16-3.2-35.2 12.8-44.8 0-3.2 3.2-3.2 9.6-3.2 9.6 0 22.4 6.4 28.8 16l128 224c6.4 9.6 6.4 22.4 0 32s-16 16-28.8 16h-131.2l96 140.8c6.4 16 3.2 35.2-9.6 44.8z" />
<glyph unicode="&#xe608;" glyph-name="weather-glyph_cloud-moon" d="M992 640c-140.8 0-256 115.2-256 256 0 19.2-12.8 32-32 32-128 0-243.2-76.8-294.4-192-9.6 0-19.2 0-28.8 0-211.2 0-380.8-172.8-380.8-384s169.6-384 380.8-384h393.6c140.8 0 249.6 112 249.6 252.8 0 73.6-28.8 137.6-76.8 182.4 48 57.6 76.8 128 76.8 204.8 0 19.2-12.8 32-32 32zM896 441.6c-35.2 19.2-76.8 32-124.8 32-9.6 0-19.2 0-28.8-3.2-38.4 128-140.8 224-268.8 256 38.4 76.8 112 128 198.4 137.6 16-150.4 134.4-268.8 284.8-284.8-3.2-51.2-25.6-99.2-60.8-137.6z" />
<glyph unicode="&#xe609;" glyph-name="weather-glyph_cloud-rain" d="M480 0c0-19.2 12.8-32 32-32s32 12.8 32 32v224h-64v-224zM320 96c0-19.2 12.8-32 32-32s32 12.8 32 32v128h-64v-128zM640 96c0-19.2 12.8-32 32-32s32 12.8 32 32v128h-64v-128zM224 224h96v160c0 19.2 12.8 32 32 32s32-12.8 32-32v-160h96v64c0 19.2 12.8 32 32 32s32-12.8 32-32v-64h96v160c0 19.2 12.8 32 32 32s32-12.8 32-32v-160h128c0 0 3.2 0 3.2 0 108.8 12.8 188.8 102.4 188.8 208 0 99.2-67.2 182.4-163.2 204.8-28.8 166.4-172.8 291.2-348.8 291.2-147.2 0-278.4-92.8-332.8-230.4-102.4-28.8-179.2-124.8-179.2-233.6 0-124.8 96-227.2 224-240z" />
<glyph unicode="&#xe60a;" glyph-name="weather-glyph_cloud-rainbow" d="M992 864c19.2 0 32 12.8 32 32s-12.8 32-32 32c-208 0-390.4-121.6-470.4-310.4-54.4 35.2-118.4 54.4-185.6 54.4-185.6 0-336-150.4-336-336s150.4-336 336-336h435.2c137.6 0 249.6 112 249.6 249.6 0 89.6-48 169.6-118.4 211.2 16 32 51.2 54.4 86.4 54.4 19.2 0 32 12.8 32 32s-12.8 32-32 32c-64 0-118.4-35.2-147.2-92.8-22.4 6.4-48 9.6-73.6 9.6-16 0-28.8-3.2-44.8-3.2 32 115.2 137.6 195.2 262.4 195.2 19.2 0 32 12.8 32 32s-12.8 32-32 32c-166.4 0-307.2-121.6-332.8-284.8-3.2-3.2-6.4-3.2-9.6-6.4-16 41.6-44.8 80-76.8 112 73.6 176 240 291.2 425.6 291.2z" />
<glyph unicode="&#xe60b;" glyph-name="weather-glyph_cloud-snow-34" d="M860.8 636.8c-28.8 166.4-172.8 291.2-348.8 291.2-147.2 0-278.4-92.8-332.8-230.4-102.4-28.8-179.2-124.8-179.2-233.6 0-124.8 96-227.2 224-240h256v32c0 19.2 12.8 32 32 32s32-12.8 32-32v-32h288c0 0 3.2 0 3.2 0 108.8 12.8 188.8 102.4 188.8 208 0 99.2-67.2 182.4-163.2 204.8zM384 320c0-19.2-12.8-32-32-32s-32 12.8-32 32v32c0 19.2 12.8 32 32 32s32-12.8 32-32v-32zM704 320c0-19.2-12.8-32-32-32s-32 12.8-32 32v32c0 19.2 12.8 32 32 32s32-12.8 32-32v-32zM544 32v32c0 19.2-12.8 32-32 32s-32-12.8-32-32v-32c0-19.2 12.8-32 32-32s32 12.8 32 32zM384 128v32c0 19.2-12.8 32-32 32s-32-12.8-32-32v-32c0-19.2 12.8-32 32-32s32 12.8 32 32zM704 128v32c0 19.2-12.8 32-32 32s-32-12.8-32-32v-32c0-19.2 12.8-32 32-32s32 12.8 32 32z" />
<glyph unicode="&#xe60c;" glyph-name="weather-glyph_cloud-snow-42" d="M860.8 636.8c-28.8 166.4-172.8 291.2-348.8 291.2-147.2 0-278.4-92.8-332.8-230.4-102.4-28.8-179.2-124.8-179.2-233.6 0-124.8 96-227.2 224-240h105.6c-25.6 28.8-32 76.8-12.8 112 16 28.8 48 48 83.2 48 6.4 0 12.8 0 19.2-3.2 12.8 38.4 48 67.2 92.8 67.2s80-28.8 92.8-67.2c6.4 0 12.8 3.2 19.2 3.2 35.2 0 67.2-19.2 83.2-48 22.4-38.4 16-83.2-12.8-112h137.6c0 0 3.2 0 3.2 0 108.8 12.8 188.8 102.4 188.8 208 0 99.2-67.2 182.4-163.2 204.8zM374.4 144c6.4-9.6 16-16 28.8-16 6.4 0 9.6 0 16 3.2l64 35.2v-70.4c0-19.2 12.8-32 32-32s32 12.8 32 32v73.6l64-35.2c6.4-3.2 9.6-3.2 16-3.2 9.6 0 22.4 6.4 28.8 16 9.6 16 3.2 35.2-12.8 44.8l-67.2 32 64 35.2c16 9.6 19.2 28.8 12.8 44.8-9.6 16-28.8 19.2-44.8 12.8l-64-35.2v70.4c0 19.2-12.8 32-32 32s-32-12.8-32-32v-73.6l-64 35.2c-16 9.6-35.2 3.2-44.8-12.8s-3.2-35.2 12.8-44.8l64-35.2-64-35.2c-12.8-6.4-19.2-25.6-9.6-41.6z" />
<glyph unicode="&#xe60d;" glyph-name="weather-glyph_cloud-sun-17" d="M704 928c-128 0-243.2-76.8-294.4-192-9.6 0-19.2 0-28.8 0-211.2 0-380.8-172.8-380.8-384s169.6-384 380.8-384h393.6c140.8 0 249.6 112 249.6 252.8 0 73.6-28.8 137.6-76.8 182.4 48 57.6 76.8 128 76.8 204.8 0 176-144 320-320 320zM896 441.6c-35.2 19.2-76.8 32-124.8 32-9.6 0-19.2 0-28.8-3.2-38.4 128-140.8 224-268.8 256 44.8 83.2 134.4 137.6 230.4 137.6 140.8 0 256-115.2 256-256 0-64-22.4-121.6-64-166.4z" />
<glyph unicode="&#xe60e;" glyph-name="weather-glyph_cloud-sun-19" d="M576 864c19.2 0 32 12.8 32 32v32c0 19.2-12.8 32-32 32s-32-12.8-32-32v-32c0-19.2 12.8-32 32-32zM848 752c9.6 0 16 3.2 22.4 9.6l22.4 22.4c12.8 12.8 12.8 32 0 44.8s-32 12.8-44.8 0l-22.4-22.4c-12.8-12.8-12.8-32 0-44.8 6.4-6.4 12.8-9.6 22.4-9.6zM992 544h-32c-19.2 0-32-12.8-32-32s12.8-32 32-32h32c19.2 0 32 12.8 32 32s-12.8 32-32 32zM281.6 761.6c6.4-6.4 16-9.6 22.4-9.6s16 3.2 22.4 9.6c12.8 12.8 12.8 32 0 44.8l-22.4 22.4c-12.8 12.8-32 12.8-44.8 0s-12.8-32 0-44.8l22.4-22.4zM848 422.4c9.6 28.8 16 57.6 16 89.6 0 160-128 288-288 288-124.8 0-233.6-80-272-195.2-169.6-16-304-160-304-332.8 0-185.6 150.4-336 336-336h435.2c137.6 0 249.6 112 249.6 249.6 3.2 112-70.4 204.8-172.8 236.8zM787.2 435.2c-3.2 0-6.4 0-12.8 0-44.8 0-86.4-12.8-124.8-35.2-48 112-153.6 192-275.2 204.8 35.2 80 112 131.2 201.6 131.2 124.8 0 224-99.2 224-224 0-25.6-6.4-54.4-12.8-76.8z" />
<glyph unicode="&#xe60f;" glyph-name="weather-glyph_compass" d="M512 960c-281.6 0-512-230.4-512-512s230.4-512 512-512 512 230.4 512 512-230.4 512-512 512zM748.8 483.2l-182.4-92.8-92.8-182.4c-3.2-9.6-12.8-16-25.6-16 0 0-3.2 0-3.2 0-12.8 0-25.6 9.6-28.8 22.4l-128 416c-3.2 12.8 0 22.4 6.4 32 12.8 9.6 22.4 12.8 35.2 9.6l416-128c12.8-3.2 22.4-16 22.4-28.8s-6.4-25.6-19.2-32z" />
<glyph unicode="&#xe610;" glyph-name="weather-glyph_drop-12" d="M512-64c188.8 0 384 144 384 384 0 233.6-345.6 582.4-361.6 598.4-12.8 12.8-32 12.8-44.8 0-16-16-361.6-364.8-361.6-598.4 0-240 195.2-384 384-384zM384 352c19.2 0 32-12.8 32-32 0-89.6 80-96 96-96s32-16 32-32-16-32-32-32c-44.8 0-160 28.8-160 160 0 19.2 12.8 32 32 32z" />
<glyph unicode="&#xe611;" glyph-name="weather-glyph_drop-15" d="M512-64c188.8 0 384 144 384 384 0 230.4-345.6 582.4-361.6 598.4-12.8 12.8-32 12.8-44.8 0-16-16-361.6-368-361.6-598.4 0-240 195.2-384 384-384z" />
<glyph unicode="&#xe612;" glyph-name="weather-glyph_drops" d="M832 249.6c0 182.4-284.8 467.2-297.6 480s-32 12.8-44.8 0c-12.8-16-297.6-297.6-297.6-480 0-195.2 163.2-313.6 320-313.6s320 118.4 320 313.6zM886.4 918.4c-12.8 12.8-32 12.8-44.8 0-22.4-22.4-137.6-137.6-137.6-220.8 0-96 80-153.6 160-153.6s160 57.6 160 153.6c0 83.2-115.2 198.4-137.6 220.8zM160 544c80 0 160 57.6 160 153.6 0 83.2-115.2 198.4-137.6 220.8-12.8 12.8-32 12.8-44.8 0-22.4-22.4-137.6-137.6-137.6-220.8 0-96 80-153.6 160-153.6z" />
<glyph unicode="&#xe613;" glyph-name="weather-glyph_eclipse" d="M512 960c-281.6 0-512-230.4-512-512s230.4-512 512-512 512 230.4 512 512-230.4 512-512 512zM524.8 0c-3.2 0-9.6 0-12.8 0-246.4 0-448 201.6-448 448s201.6 448 448 448c3.2 0 9.6 0 12.8 0-160-89.6-265.6-259.2-265.6-448s105.6-358.4 265.6-448z" />
<glyph unicode="&#xe614;" glyph-name="weather-glyph_fahrenheit" d="M64 800c0-70.4 57.6-128 128-128s128 57.6 128 128-57.6 128-128 128-128-57.6-128-128zM256 800c0-35.2-28.8-64-64-64s-64 28.8-64 64 28.8 64 64 64 64-28.8 64-64zM928 736c19.2 0 32 12.8 32 32s-12.8 32-32 32h-480c-19.2 0-32-12.8-32-32v-800c0-19.2 12.8-32 32-32s32 12.8 32 32v416h384c19.2 0 32 12.8 32 32s-12.8 32-32 32h-384v288h448z" />
<glyph unicode="&#xe615;" glyph-name="weather-glyph_fog" d="M3.2 649.6c9.6-16 28.8-19.2 44.8-9.6l124.8 73.6c48 28.8 105.6 25.6 153.6-3.2l73.6-48c35.2-22.4 73.6-35.2 115.2-35.2s80 12.8 115.2 35.2l73.6 48c44.8 28.8 105.6 32 153.6 3.2l124.8-73.6c16-9.6 35.2-3.2 44.8 9.6s3.2 35.2-9.6 44.8l-131.2 73.6c-67.2 41.6-153.6 38.4-220.8-6.4l-73.6-48c-48-32-108.8-32-156.8 0l-73.6 48c-67.2 44.8-153.6 48-224 6.4l-121.6-73.6c-16-9.6-19.2-28.8-12.8-44.8zM3.2 121.6c9.6-16 28.8-19.2 44.8-9.6l124.8 73.6c48 28.8 105.6 25.6 153.6-3.2l73.6-48c35.2-22.4 73.6-35.2 115.2-35.2s80 12.8 115.2 35.2l73.6 48c44.8 28.8 105.6 32 153.6 3.2l124.8-73.6c16-9.6 35.2-3.2 44.8 9.6s3.2 35.2-9.6 44.8l-124.8 73.6c-67.2 41.6-153.6 38.4-220.8-6.4l-73.6-48c-48-32-108.8-32-156.8 0l-73.6 48c-67.2 44.8-153.6 44.8-220.8 6.4l-124.8-73.6c-22.4-9.6-25.6-28.8-19.2-44.8zM3.2 387.2c9.6-16 28.8-19.2 44.8-9.6l124.8 70.4c48 28.8 105.6 25.6 153.6-3.2l73.6-48c35.2-22.4 73.6-35.2 115.2-35.2 38.4 0 80 12.8 115.2 35.2l73.6 48c44.8 32 105.6 32 153.6 3.2l124.8-73.6c16-9.6 35.2-3.2 44.8 9.6 9.6 16 3.2 35.2-9.6 44.8l-124.8 73.6c-67.2 41.6-153.6 38.4-220.8-6.4l-73.6-48c-48-32-108.8-32-156.8 0l-73.6 48c-73.6 48-160 48-230.4 9.6l-124.8-73.6c-12.8-9.6-16-32-9.6-44.8z" />
<glyph unicode="&#xe616;" glyph-name="weather-glyph_forecast" d="M64 928v-960c0-19.2 12.8-32 32-32s32 12.8 32 32v960c0 19.2-12.8 32-32 32s-32-12.8-32-32zM448 851.2l-217.6 44.8c-9.6 0-19.2 0-25.6-6.4-9.6-6.4-12.8-16-12.8-25.6v-576c0-9.6 3.2-19.2 12.8-25.6 3.2-3.2 12.8-6.4 19.2-6.4 3.2 0 3.2 0 6.4 0l217.6 44.8v550.4zM704 796.8l-192 38.4v-518.4l192 38.4zM998.4 736l-230.4 48v-416l230.4 48c16 3.2 25.6 16 25.6 32v256c0 16-9.6 28.8-25.6 32z" />
<glyph unicode="&#xe617;" glyph-name="weather-glyph_hurricane-44" d="M700.8 92.8c-9.6 16-28.8 19.2-44.8 9.6-38.4-25.6-89.6-38.4-144-38.4-60.8 0-115.2 16-156.8 44.8-16 9.6-35.2 6.4-44.8-6.4-9.6-16-6.4-35.2 6.4-44.8 51.2-35.2 121.6-57.6 192-57.6 67.2 0 128 16 179.2 48 19.2 9.6 22.4 28.8 12.8 44.8zM800 313.6c-12.8 12.8-32 12.8-44.8 0-48-48-144-76.8-243.2-76.8s-188.8 28.8-240 73.6c-12.8 12.8-32 9.6-44.8-3.2s-9.6-32 3.2-44.8c60.8-57.6 169.6-89.6 284.8-89.6 118.4 0 227.2 35.2 288 96 9.6 12.8 9.6 32-3.2 44.8zM870.4 483.2c-9.6 12.8-32 16-44.8 6.4-64-48-182.4-80-313.6-80s-249.6 32-313.6 80c-12.8 9.6-35.2 9.6-44.8-6.4-9.6-12.8-6.4-35.2 6.4-44.8 73.6-57.6 208-92.8 352-92.8s278.4 35.2 352 92.8c12.8 9.6 16 32 6.4 44.8zM992 723.2c0-95.435-214.903-172.8-480-172.8s-480 77.365-480 172.8c0 95.435 214.903 172.8 480 172.8s480-77.365 480-172.8z" />
<glyph unicode="&#xe618;" glyph-name="weather-glyph_hurricane-45" d="M992 864c0 19.2-12.8 32-32 32h-896c-19.2 0-32-12.8-32-32s12.8-32 32-32h896c19.2 0 32 12.8 32 32zM832 672c19.2 0 32 12.8 32 32s-12.8 32-32 32h-640c-19.2 0-32-12.8-32-32s12.8-32 32-32h640zM896 544c0 19.2-12.8 32-32 32h-544c-19.2 0-32-12.8-32-32s12.8-32 32-32h544c19.2 0 32 12.8 32 32zM800 384c0 19.2-12.8 32-32 32h-320c-19.2 0-32-12.8-32-32s12.8-32 32-32h320c19.2 0 32 12.8 32 32zM544 224c0 19.2-12.8 32-32 32h-224c-19.2 0-32-12.8-32-32s12.8-32 32-32h224c19.2 0 32 12.8 32 32zM128 64c0-19.2 12.8-32 32-32h160c19.2 0 32 12.8 32 32s-12.8 32-32 32h-160c-19.2 0-32-12.8-32-32z" />
<glyph unicode="&#xe619;" glyph-name="weather-glyph_moon-cloud-drop" d="M992 640c0 12.8 0 28.8-3.2 44.8 0 9.6-6.4 16-12.8 22.4s-16 6.4-25.6 3.2-38.4-6.4-54.4-6.4c-105.6 0-192 86.4-192 188.8 0 9.6-3.2 19.2-9.6 22.4s-16 12.8-25.6 9.6c-124.8-16-224-108.8-246.4-230.4-70.4-19.2-131.2-64-166.4-128-16 3.2-32 6.4-48 6.4-115.2 0-208-92.8-208-204.8 0-115.2 92.8-208 208-208h124.8c16 51.2 51.2 108.8 108.8 172.8 19.2 22.4 44.8 35.2 73.6 35.2s54.4-12.8 73.6-35.2c54.4-67.2 92.8-124.8 108.8-172.8h124.8c115.2 0 208 92.8 208 208 0 57.6-22.4 108.8-60.8 147.2 12.8 38.4 22.4 80 22.4 124.8zM928 640c0-32-6.4-60.8-19.2-89.6-28.8 12.8-57.6 22.4-92.8 22.4-28.8 0-57.6-6.4-83.2-19.2-44.8 92.8-137.6 150.4-243.2 150.4 0 0 0 0 0 0 22.4 73.6 80 131.2 153.6 150.4 19.2-121.6 124.8-214.4 252.8-214.4 9.6 0 22.4 0 32 0 0 0 0 0 0 0zM486.4 291.2c-35.2-41.6-102.4-131.2-102.4-188.8 0-86.4 64-134.4 128-134.4s128 48 128 134.4c0 60.8-67.2 147.2-102.4 188.8-12.8 16-38.4 16-51.2 0z" />
<glyph unicode="&#xe61a;" glyph-name="weather-glyph_moon-cloud-fog" d="M992 224h-960c-19.2 0-32-12.8-32-32s12.8-32 32-32h960c19.2 0 32 12.8 32 32s-12.8 32-32 32zM864 96h-704c-19.2 0-32-12.8-32-32s12.8-32 32-32h704c19.2 0 32 12.8 32 32s-12.8 32-32 32zM992 611.2c0 12.8 0 28.8-3.2 44.8 0 9.6-6.4 16-12.8 22.4s-16 6.4-25.6 3.2c-16-6.4-35.2-6.4-51.2-6.4-105.6 0-192 86.4-192 188.8 0 9.6-3.2 19.2-9.6 22.4s-19.2 9.6-28.8 9.6c-124.8-16-224-108.8-246.4-233.6-70.4-19.2-131.2-64-166.4-128-16 3.2-32 6.4-48 6.4-115.2 0-208-92.8-208-204.8 0-6.4 0-12.8 0-16 0-16 16-28.8 32-28.8h960c16 0 32 12.8 32 28.8 0 6.4 0 12.8 0 16 0 57.6-25.6 108.8-64 147.2 22.4 38.4 32 83.2 32 128zM928 611.2c0-32-6.4-60.8-19.2-89.6-28.8 12.8-57.6 22.4-92.8 22.4-28.8 0-57.6-6.4-83.2-19.2-44.8 89.6-137.6 147.2-243.2 147.2 0 0 0 0 0 0 22.4 73.6 80 134.4 153.6 153.6 19.2-121.6 124.8-214.4 252.8-214.4 9.6 0 22.4 0 32 0 0 0 0 0 0 0z" />
<glyph unicode="&#xe61b;" glyph-name="weather-glyph_moon-cloud-hail" d="M992 640c0 12.8 0 28.8-3.2 44.8 0 9.6-6.4 16-12.8 22.4s-16 6.4-25.6 3.2-38.4-6.4-54.4-6.4c-105.6 0-192 86.4-192 188.8 0 9.6-3.2 19.2-9.6 22.4s-16 12.8-25.6 9.6c-124.8-16-224-108.8-246.4-230.4-70.4-19.2-131.2-64-166.4-128-16 3.2-32 6.4-48 6.4-115.2 0-208-92.8-208-204.8s92.8-208 208-208h611.2c115.2 0 208 92.8 208 208 0 57.6-22.4 108.8-60.8 147.2 16 38.4 25.6 80 25.6 124.8zM928 640c0-32-6.4-60.8-19.2-89.6-28.8 12.8-57.6 22.4-92.8 22.4-28.8 0-57.6-6.4-83.2-19.2-44.8 92.8-137.6 150.4-243.2 150.4 0 0 0 0 0 0 22.4 73.6 80 131.2 153.6 150.4 19.2-121.6 124.8-214.4 252.8-214.4 9.6 0 22.4 0 32 0 0 0 0 0 0 0zM512 64c-19.2 0-32-12.8-32-32v-32c0-19.2 12.8-32 32-32s32 12.8 32 32v32c0 19.2-12.8 32-32 32zM384 128c-19.2 0-32-12.8-32-32v-32c0-19.2 12.8-32 32-32s32 12.8 32 32v32c0 19.2-12.8 32-32 32zM640 128c-19.2 0-32-12.8-32-32v-32c0-19.2 12.8-32 32-32s32 12.8 32 32v32c0 19.2-12.8 32-32 32z" />
<glyph unicode="&#xe61c;" glyph-name="weather-glyph_moon-cloud-light" d="M992 643.2c0 12.8 0 28.8-3.2 44.8 0 9.6-6.4 16-12.8 22.4s-16 6.4-25.6 3.2c-16-6.4-35.2-6.4-51.2-6.4-105.6 0-192 86.4-192 188.8 0 9.6-3.2 19.2-9.6 22.4s-19.2 9.6-28.8 9.6c-124.8-16-224-108.8-246.4-233.6-70.4-19.2-131.2-64-166.4-128-16 3.2-32 6.4-48 6.4-115.2 0-208-92.8-208-204.8 0-115.2 92.8-208 208-208h150.4c-9.6 25.6-6.4 57.6 6.4 80l96 160c19.2 28.8 51.2 48 83.2 48 16 0 35.2-3.2 48-12.8 22.4-12.8 38.4-35.2 44.8-57.6 6.4-25.6 3.2-51.2-9.6-73.6l-12.8-22.4c19.2-9.6 35.2-22.4 48-41.6 12.8-25.6 16-54.4 6.4-80h150.4c115.2 0 208 92.8 208 208 0 57.6-25.6 108.8-64 147.2 19.2 38.4 28.8 83.2 28.8 128zM928 643.2c0-32-6.4-60.8-19.2-89.6-28.8 12.8-57.6 22.4-92.8 22.4-28.8 0-57.6-6.4-83.2-19.2-44.8 89.6-137.6 147.2-243.2 147.2 0 0 0 0 0 0 22.4 73.6 80 134.4 153.6 153.6 19.2-121.6 124.8-214.4 252.8-214.4 9.6 0 22.4 0 32 0 0 0 0 0 0 0zM576 224h-70.4l67.2 112c9.6 16 3.2 35.2-9.6 44.8-16 9.6-35.2 3.2-44.8-9.6l-96-160c-6.4-9.6-6.4-22.4 0-32s16-16 28.8-16h70.4l-67.2-112c-9.6-16-3.2-35.2 9.6-44.8 3.2-6.4 9.6-6.4 16-6.4 9.6 0 22.4 6.4 28.8 16l96 160c6.4 9.6 6.4 22.4 0 32s-16 16-28.8 16z" />
<glyph unicode="&#xe61d;" glyph-name="weather-glyph_moon-cloud-rain" d="M992 640c0 12.8 0 28.8-3.2 44.8 0 9.6-6.4 16-12.8 22.4s-16 6.4-25.6 3.2-38.4-6.4-54.4-6.4c-105.6 0-192 86.4-192 188.8 0 9.6-3.2 19.2-9.6 22.4s-16 12.8-25.6 9.6c-124.8-16-224-108.8-246.4-230.4-70.4-19.2-131.2-64-166.4-128-16 3.2-32 6.4-48 6.4-115.2 0-208-92.8-208-204.8s92.8-208 208-208h144v192c0 19.2 12.8 32 32 32s32-12.8 32-32v-192h64v96c0 19.2 12.8 32 32 32s32-12.8 32-32v-96h64v192c0 19.2 12.8 32 32 32s32-12.8 32-32v-192h144c115.2 0 208 92.8 208 208 0 57.6-22.4 108.8-60.8 147.2 19.2 38.4 28.8 80 28.8 124.8zM928 640c0-32-6.4-60.8-19.2-89.6-28.8 12.8-57.6 22.4-92.8 22.4-28.8 0-57.6-6.4-83.2-19.2-44.8 92.8-137.6 150.4-243.2 150.4 0 0 0 0 0 0 22.4 73.6 80 131.2 153.6 150.4 19.2-121.6 124.8-214.4 252.8-214.4 9.6 0 22.4 0 32 0 0 0 0 0 0 0zM352 96c0-19.2 12.8-32 32-32s32 12.8 32 32v64h-64v-64zM480 0c0-19.2 12.8-32 32-32s32 12.8 32 32v160h-64v-160zM608 96c0-19.2 12.8-32 32-32s32 12.8 32 32v64h-64v-64z" />
<glyph unicode="&#xe61e;" glyph-name="weather-glyph_moon-cloud-snow-61" d="M992 640c0 12.8 0 28.8-3.2 44.8 0 9.6-6.4 16-12.8 22.4s-16 6.4-25.6 3.2c-128-35.2-246.4 60.8-246.4 182.4 0 9.6-3.2 19.2-9.6 22.4-6.4 6.4-16 9.6-25.6 6.4-124.8-16-224-108.8-246.4-230.4-70.4-19.2-131.2-64-166.4-128-16 3.2-32 6.4-48 6.4-115.2 3.2-208-89.6-208-201.6 0-115.2 92.8-208 208-208h272v32c0 19.2 12.8 32 32 32s32-12.8 32-32v-32h272c115.2 0 208 92.8 208 208 0 57.6-22.4 108.8-60.8 147.2 19.2 38.4 28.8 80 28.8 124.8zM416 256c0-19.2-12.8-32-32-32s-32 12.8-32 32v32c0 19.2 12.8 32 32 32s32-12.8 32-32v-32zM672 256c0-19.2-12.8-32-32-32s-32 12.8-32 32v32c0 19.2 12.8 32 32 32s32-12.8 32-32v-32zM908.8 550.4c-28.8 12.8-57.6 22.4-92.8 22.4-28.8 0-57.6-6.4-83.2-19.2-44.8 92.8-137.6 150.4-243.2 150.4 0 0 0 0 0 0 22.4 73.6 80 131.2 153.6 150.4 22.4-131.2 147.2-230.4 284.8-214.4 0 0 0 0 0-3.2 0-28.8-6.4-57.6-19.2-86.4zM512 64c-19.2 0-32-12.8-32-32v-32c0-19.2 12.8-32 32-32s32 12.8 32 32v32c0 19.2-12.8 32-32 32zM384 128c-19.2 0-32-12.8-32-32v-32c0-19.2 12.8-32 32-32s32 12.8 32 32v32c0 19.2-12.8 32-32 32zM640 128c-19.2 0-32-12.8-32-32v-32c0-19.2 12.8-32 32-32s32 12.8 32 32v32c0 19.2-12.8 32-32 32z" />
<glyph unicode="&#xe61f;" glyph-name="weather-glyph_moon-cloud-snow-62" d="M992 640c0 12.8 0 28.8-3.2 44.8 0 9.6-6.4 16-12.8 22.4s-16 6.4-25.6 3.2c-128-35.2-246.4 60.8-246.4 182.4 0 9.6-3.2 19.2-9.6 22.4-6.4 6.4-16 9.6-25.6 6.4-124.8-16-224-108.8-246.4-230.4-70.4-19.2-131.2-64-166.4-128-16 3.2-32 6.4-48 6.4-115.2 3.2-208-89.6-208-201.6 0-115.2 92.8-208 208-208h105.6c3.2 12.8 9.6 22.4 19.2 32-25.6 28.8-32 73.6-12.8 112 16 28.8 48 48 83.2 48 6.4 0 12.8 0 19.2-3.2 12.8 38.4 48 67.2 92.8 67.2s80-28.8 92.8-67.2c6.4 0 12.8 3.2 19.2 3.2 35.2 0 67.2-19.2 83.2-48 22.4-38.4 16-83.2-12.8-112 9.6-9.6 16-19.2 19.2-32h105.6c115.2 0 208 92.8 208 208 0 57.6-22.4 108.8-60.8 147.2 12.8 38.4 22.4 80 22.4 124.8zM908.8 550.4c-28.8 12.8-57.6 22.4-92.8 22.4-28.8 0-57.6-6.4-83.2-19.2-44.8 92.8-137.6 150.4-243.2 150.4 0 0 0 0 0 0 22.4 73.6 80 131.2 153.6 150.4 22.4-131.2 147.2-230.4 284.8-214.4 0 0 0 0 0-3.2 0-28.8-6.4-57.6-19.2-86.4zM649.6 272c-9.6 16-28.8 19.2-44.8 12.8l-64-35.2v70.4c0 19.2-12.8 32-32 32s-32-12.8-32-32v-73.6l-64 35.2c-16 9.6-35.2 3.2-44.8-12.8s-3.2-35.2 12.8-44.8l64-35.2-64-35.2c-16-9.6-19.2-28.8-12.8-44.8 6.4-9.6 16-16 28.8-16 6.4 0 9.6 0 16 3.2l64 35.2v-67.2c0-19.2 12.8-32 32-32s32 12.8 32 32v73.6l64-35.2c6.4-3.2 9.6-3.2 16-3.2 9.6 0 22.4 6.4 28.8 16 9.6 16 3.2 35.2-12.8 44.8l-60.8 32 64 35.2c12.8 9.6 19.2 28.8 9.6 44.8z" />
<glyph unicode="&#xe620;" glyph-name="weather-glyph_moon-fog" d="M0 128c0-19.2 12.8-32 32-32h320c19.2 0 32 12.8 32 32s-12.8 32-32 32h-320c-19.2 0-32-12.8-32-32zM32 457.6c0-83.2 22.4-163.2 57.6-233.6h262.4c54.4 0 96-41.6 96-96 0-12.8-3.2-22.4-6.4-32h70.4c54.4 0 96-41.6 96-96 0-9.6 0-16-3.2-25.6 182.4 32 336 166.4 387.2 352 3.2 9.6 0 22.4-9.6 32s-19.2 12.8-32 9.6c-38.4-9.6-73.6-16-112-16-233.6 0-422.4 188.8-422.4 422.4 0 35.2 6.4 73.6 16 112 3.2 9.6 0 22.4-9.6 32s-19.2 12.8-32 9.6c-211.2-57.6-358.4-252.8-358.4-470.4zM512 32h-320c-19.2 0-32-12.8-32-32s12.8-32 32-32h320c19.2 0 32 12.8 32 32s-12.8 32-32 32z" />
<glyph unicode="&#xe621;" glyph-name="weather-glyph_moon-full" d="M512 960c-281.6 0-512-230.4-512-512s230.4-512 512-512 512 230.4 512 512-230.4 512-512 512z" />
<glyph unicode="&#xe622;" glyph-name="weather-glyph_moon-stars" d="M422.4 918.4c-6.4 9.6-19.2 12.8-32 9.6-211.2-57.6-358.4-252.8-358.4-470.4 0-272 217.6-489.6 489.6-489.6 220.8 0 412.8 147.2 470.4 358.4 3.2 9.6 0 22.4-9.6 32s-19.2 12.8-32 9.6c-38.4-9.6-73.6-16-112-16-233.6 0-422.4 188.8-422.4 422.4 0 35.2 6.4 73.6 16 112 3.2 12.8 0 25.6-9.6 32zM672 928c-19.2 0-32-12.8-32-32v-32h-32c-19.2 0-32-12.8-32-32s12.8-32 32-32h32v-32c0-19.2 12.8-32 32-32s32 12.8 32 32v32h32c19.2 0 32 12.8 32 32s-12.8 32-32 32h-32v32c0 19.2-12.8 32-32 32zM896 672c-19.2 0-32-12.8-32-32v-32h-32c-19.2 0-32-12.8-32-32s12.8-32 32-32h32v-32c0-19.2 12.8-32 32-32s32 12.8 32 32v32h32c19.2 0 32 12.8 32 32s-12.8 32-32 32h-32v32c0 19.2-12.8 32-32 32z" />
<glyph unicode="&#xe623;" glyph-name="weather-glyph_moon" d="M422.4 918.4c-6.4 9.6-19.2 12.8-32 9.6-211.2-57.6-358.4-252.8-358.4-470.4 0-272 217.6-489.6 489.6-489.6 220.8 0 412.8 147.2 470.4 358.4 3.2 9.6 0 22.4-9.6 32s-19.2 12.8-32 9.6c-38.4-9.6-73.6-16-112-16-233.6 0-422.4 188.8-422.4 422.4 0 35.2 6.4 73.6 16 112 3.2 12.8 0 25.6-9.6 32z" />
<glyph unicode="&#xe624;" glyph-name="weather-glyph_rain-hail" d="M534.4 438.4c-12.8 12.8-32 12.8-44.8 0l-32-32c-12.8-12.8-12.8-32 0-44.8 6.4-6.4 16-9.6 22.4-9.6s16 3.2 22.4 9.6l32 32c12.8 12.8 12.8 32 0 44.8zM617.6 521.6c6.4-6.4 16-9.6 22.4-9.6s16 3.2 22.4 9.6l320 320c12.8 12.8 12.8 32 0 44.8s-32 12.8-44.8 0l-320-320c-12.8-12.8-12.8-32 0-44.8zM64 256c9.6 0 16 3.2 22.4 9.6l32 32c12.8 12.8 12.8 32 0 44.8s-32 12.8-44.8 0l-32-32c-12.8-12.8-12.8-32 0-44.8 6.4-6.4 12.8-9.6 22.4-9.6zM566.4 790.4c-12.8 12.8-32 12.8-44.8 0l-320-320c-12.8-12.8-12.8-32 0-44.8 6.4-6.4 12.8-9.6 22.4-9.6s16 3.2 22.4 9.6l320 320c12.8 12.8 12.8 32 0 44.8zM489.6 118.4l-32-32c-12.8-12.8-12.8-32 0-44.8 6.4-6.4 16-9.6 22.4-9.6s16 3.2 22.4 9.6l32 32c12.8 12.8 12.8 32 0 44.8s-32 12.8-44.8 0zM937.6 566.4l-320-320c-12.8-12.8-12.8-32 0-44.8 6.4-6.4 16-9.6 22.4-9.6s16 3.2 22.4 9.6l320 320c12.8 12.8 12.8 32 0 44.8s-32 12.8-44.8 0z" />
<glyph unicode="&#xe625;" glyph-name="weather-glyph_rain" d="M982.4 886.4c-12.8 12.8-32 12.8-44.8 0l-480-480c-12.8-12.8-12.8-32 0-44.8 6.4-6.4 16-9.6 22.4-9.6s16 3.2 22.4 9.6l480 480c12.8 12.8 12.8 32 0 44.8zM521.6 790.4l-480-480c-12.8-12.8-12.8-32 0-44.8 6.4-6.4 12.8-9.6 22.4-9.6s16 3.2 22.4 9.6l480 480c12.8 12.8 12.8 32 0 44.8s-32 12.8-44.8 0zM937.6 566.4l-480-480c-12.8-12.8-12.8-32 0-44.8 6.4-6.4 16-9.6 22.4-9.6s16 3.2 22.4 9.6l480 480c12.8 12.8 12.8 32 0 44.8s-32 12.8-44.8 0z" />
<glyph unicode="&#xe626;" glyph-name="weather-glyph_rainbow" d="M512 736c-281.6 0-512-230.4-512-512 0-19.2 12.8-32 32-32s32 12.8 32 32c0 246.4 201.6 448 448 448s448-201.6 448-448c0-19.2 12.8-32 32-32s32 12.8 32 32c0 281.6-230.4 512-512 512zM512 560c-185.6 0-336-150.4-336-336 0-19.2 12.8-32 32-32s32 12.8 32 32c0 150.4 121.6 272 272 272s272-121.6 272-272c0-19.2 12.8-32 32-32s32 12.8 32 32c0 185.6-150.4 336-336 336zM412.8 224c0 54.4 44.8 99.2 99.2 99.2s99.2-44.8 99.2-99.2c0-19.2 12.8-32 32-32s32 12.8 32 32c0 89.6-73.6 163.2-163.2 163.2s-163.2-73.6-163.2-163.2c0-19.2 12.8-32 32-32s32 12.8 32 32z" />
<glyph unicode="&#xe627;" glyph-name="weather-glyph_snow" d="M76.8 374.4c-16 3.2-35.2-6.4-38.4-22.4s6.4-35.2 22.4-38.4l105.6-28.8-83.2-48c-19.2-9.6-22.4-28.8-16-44.8 6.4-9.6 16-16 28.8-16 6.4 0 9.6 0 16 3.2l83.2 48-28.8-105.6c-3.2-16 6.4-35.2 22.4-38.4 3.2 0 6.4 0 9.6 0 12.8 0 25.6 9.6 32 22.4l44.8 166.4 204.8 118.4v-236.8l-121.6-121.6c-12.8-12.8-12.8-32 0-44.8s32-12.8 44.8 0l76.8 76.8v-96c0-19.2 12.8-32 32-32s32 12.8 32 32v96l76.8-76.8c6.4-6.4 16-9.6 22.4-9.6s16 3.2 22.4 9.6c12.8 12.8 12.8 32 0 44.8l-121.6 124.8v236.8l204.8-118.4 44.8-166.4c3.2-12.8 16-22.4 32-22.4 3.2 0 6.4 0 9.6 0 16 3.2 25.6 22.4 22.4 38.4l-28.8 105.6 83.2-48c6.4-3.2 9.6-3.2 16-3.2 9.6 0 22.4 6.4 28.8 16 9.6 16 3.2 35.2-12.8 44.8l-83.2 48 105.6 28.8c16 3.2 25.6 22.4 22.4 38.4s-22.4 25.6-38.4 22.4l-166.4-44.8-208 115.2 204.8 118.4 166.4-44.8c3.2 0 6.4 0 9.6 0 12.8 0 25.6 9.6 32 22.4 3.2 16-6.4 35.2-22.4 38.4l-105.6 28.8 83.2 48c16 9.6 19.2 28.8 12.8 44.8-9.6 16-28.8 19.2-44.8 12.8l-83.2-48 28.8 105.6c3.2 16-6.4 35.2-22.4 38.4s-35.2-6.4-38.4-22.4l-44.8-166.4-208-121.6v236.8l121.6 121.6c12.8 12.8 12.8 32 0 44.8s-32 12.8-44.8 0l-76.8-73.6v96c0 19.2-12.8 32-32 32s-32-12.8-32-32v-96l-76.8 76.8c-12.8 12.8-32 12.8-44.8 0s-12.8-32 0-44.8l121.6-124.8v-236.8l-204.8 118.4-44.8 166.4c-3.2 19.2-22.4 28.8-38.4 22.4-19.2-3.2-28.8-22.4-22.4-38.4l28.8-105.6-86.4 51.2c-16 6.4-35.2 3.2-44.8-12.8s-3.2-35.2 12.8-44.8l83.2-48-105.6-28.8c-12.8-3.2-25.6-22.4-19.2-38.4 3.2-12.8 16-22.4 32-22.4 3.2 0 6.4 0 9.6 0l166.4 44.8 201.6-118.4-204.8-118.4-166.4 44.8z" />
<glyph unicode="&#xe628;" glyph-name="weather-glyph_sun-cloud-drop" d="M883.2 531.2c9.6 25.6 12.8 51.2 12.8 76.8 0 124.8-99.2 224-224 224-102.4 0-188.8-67.2-217.6-163.2-83.2-9.6-160-60.8-201.6-134.4-16 3.2-32 6.4-48 6.4-112 0-204.8-92.8-204.8-204.8 0-115.2 92.8-208 208-208h124.8c16 51.2 51.2 108.8 108.8 172.8 19.2 22.4 44.8 35.2 73.6 35.2s54.4-12.8 73.6-35.2c54.4-67.2 92.8-124.8 108.8-172.8h124.8c115.2 0 208 92.8 208 208-6.4 89.6-67.2 166.4-147.2 195.2zM816 540.8c-28.8 0-57.6-6.4-83.2-19.2-41.6 80-118.4 134.4-208 147.2 22.4 57.6 83.2 99.2 147.2 99.2 89.6 0 160-70.4 160-160 0-22.4-6.4-44.8-16-67.2zM512-64c64 0 128 48 128 134.4 0 60.8-67.2 147.2-102.4 188.8-12.8 16-35.2 16-48 0-38.4-41.6-105.6-131.2-105.6-188.8 0-86.4 64-134.4 128-134.4zM640 928v-32c0-19.2 12.8-32 32-32s32 12.8 32 32v32c0 19.2-12.8 32-32 32s-32-12.8-32-32zM899.2 790.4l22.4 22.4c12.8 12.8 12.8 32 0 44.8s-32 12.8-44.8 0l-22.4-22.4c-12.8-12.8-12.8-32 0-44.8 6.4-6.4 16-9.6 22.4-9.6s16 3.2 22.4 9.6zM992 640h-32c-19.2 0-32-12.8-32-32s12.8-32 32-32h32c19.2 0 32 12.8 32 32s-12.8 32-32 32zM422.4 857.6c-12.8-12.8-12.8-32 0-44.8l22.4-22.4c6.4-6.4 16-9.6 22.4-9.6s16 3.2 22.4 9.6c12.8 12.8 12.8 32 0 44.8l-22.4 22.4c-12.8 12.8-32 12.8-44.8 0z" />
<glyph unicode="&#xe629;" glyph-name="weather-glyph_sun-cloud-fog" d="M992 192h-960c-19.2 0-32-12.8-32-32s12.8-32 32-32h960c19.2 0 32 12.8 32 32s-12.8 32-32 32zM896 32c0 19.2-12.8 32-32 32h-704c-19.2 0-32-12.8-32-32s12.8-32 32-32h704c19.2 0 32 12.8 32 32zM883.2 499.2c9.6 25.6 12.8 51.2 12.8 76.8 0 124.8-99.2 224-224 224-102.4 0-188.8-67.2-217.6-163.2-83.2-9.6-160-60.8-201.6-134.4-16 3.2-32 6.4-48 6.4-112 0-204.8-92.8-204.8-204.8 0-6.4 0-12.8 0-16 0-16 16-28.8 32-28.8h960c16 0 32 12.8 32 28.8 0 6.4 0 12.8 0 16 0 89.6-60.8 166.4-140.8 195.2zM816 508.8c-28.8 0-57.6-6.4-83.2-19.2-41.6 80-118.4 134.4-208 147.2 22.4 57.6 83.2 99.2 147.2 99.2 89.6 0 160-70.4 160-160 0-22.4-6.4-44.8-16-67.2zM640 896v-32c0-19.2 12.8-32 32-32s32 12.8 32 32v32c0 19.2-12.8 32-32 32s-32-12.8-32-32zM876.8 748.8c9.6 0 16 3.2 22.4 9.6l22.4 22.4c12.8 12.8 12.8 32 0 44.8s-32 12.8-44.8 0l-22.4-22.4c-12.8-12.8-12.8-32 0-44.8 6.4-6.4 12.8-9.6 22.4-9.6zM992 608h-32c-19.2 0-32-12.8-32-32s12.8-32 32-32h32c19.2 0 32 12.8 32 32s-12.8 32-32 32zM422.4 825.6c-12.8-12.8-12.8-32 0-44.8l22.4-22.4c6.4-6.4 16-9.6 22.4-9.6s16 3.2 22.4 9.6c12.8 12.8 12.8 32 0 44.8l-22.4 22.4c-12.8 12.8-32 12.8-44.8 0z" />
<glyph unicode="&#xe62a;" glyph-name="weather-glyph_sun-cloud-hail" d="M883.2 531.2c9.6 25.6 12.8 51.2 12.8 76.8 0 124.8-99.2 224-224 224-102.4 0-188.8-67.2-217.6-163.2-83.2-9.6-160-60.8-201.6-134.4-16 3.2-32 6.4-48 6.4-112 0-204.8-92.8-204.8-204.8s92.8-208 208-208h611.2c115.2 0 208 92.8 208 208-3.2 89.6-64 166.4-144 195.2zM816 540.8c-28.8 0-57.6-6.4-83.2-19.2-41.6 80-118.4 134.4-208 147.2 22.4 57.6 83.2 99.2 147.2 99.2 89.6 0 160-70.4 160-160 0-22.4-6.4-44.8-16-67.2zM672 960c-19.2 0-32-12.8-32-32v-32c0-19.2 12.8-32 32-32s32 12.8 32 32v32c0 19.2-12.8 32-32 32zM876.8 857.6l-22.4-22.4c-12.8-12.8-12.8-32 0-44.8 6.4-6.4 16-9.6 22.4-9.6s16 3.2 22.4 9.6l22.4 22.4c12.8 12.8 12.8 32 0 44.8s-32 12.8-44.8 0zM992 640h-32c-19.2 0-32-12.8-32-32s12.8-32 32-32h32c19.2 0 32 12.8 32 32s-12.8 32-32 32zM422.4 857.6c-12.8-12.8-12.8-32 0-44.8l22.4-22.4c6.4-6.4 16-9.6 22.4-9.6s16 3.2 22.4 9.6c12.8 12.8 12.8 32 0 44.8l-22.4 22.4c-12.8 12.8-32 12.8-44.8 0zM544-32v32c0 19.2-12.8 32-32 32s-32-12.8-32-32v-32c0-19.2 12.8-32 32-32s32 12.8 32 32zM416 32v32c0 19.2-12.8 32-32 32s-32-12.8-32-32v-32c0-19.2 12.8-32 32-32s32 12.8 32 32zM672 32v32c0 19.2-12.8 32-32 32s-32-12.8-32-32v-32c0-19.2 12.8-32 32-32s32 12.8 32 32z" />
<glyph unicode="&#xe62b;" glyph-name="weather-glyph_sun-cloud-light" d="M640 928v-32c0-19.2 12.8-32 32-32s32 12.8 32 32v32c0 19.2-12.8 32-32 32s-32-12.8-32-32zM899.2 790.4l22.4 22.4c12.8 12.8 12.8 32 0 44.8s-32 12.8-44.8 0l-22.4-22.4c-12.8-12.8-12.8-32 0-44.8 6.4-6.4 16-9.6 22.4-9.6s16 3.2 22.4 9.6zM992 640h-32c-19.2 0-32-12.8-32-32s12.8-32 32-32h32c19.2 0 32 12.8 32 32s-12.8 32-32 32zM422.4 857.6c-12.8-12.8-12.8-32 0-44.8l22.4-22.4c6.4-6.4 16-9.6 22.4-9.6s16 3.2 22.4 9.6c12.8 12.8 12.8 32 0 44.8l-22.4 22.4c-12.8 12.8-32 12.8-44.8 0zM883.2 531.2c9.6 25.6 12.8 51.2 12.8 76.8 0 124.8-99.2 224-224 224-102.4 0-188.8-67.2-217.6-163.2-83.2-9.6-160-60.8-201.6-134.4-16 3.2-32 6.4-48 6.4-112 0-204.8-92.8-204.8-204.8 0-115.2 92.8-208 208-208h150.4c-9.6 25.6-6.4 57.6 6.4 80l96 160c19.2 28.8 51.2 48 83.2 48 16 0 35.2-3.2 48-12.8 22.4-12.8 38.4-35.2 44.8-57.6 6.4-25.6 3.2-51.2-9.6-73.6l-12.8-22.4c19.2-9.6 35.2-22.4 48-41.6 12.8-25.6 16-54.4 6.4-80h150.4c115.2 0 208 92.8 208 208-3.2 89.6-64 166.4-144 195.2zM816 540.8c-28.8 0-57.6-6.4-83.2-19.2-41.6 80-118.4 134.4-208 147.2 22.4 57.6 83.2 99.2 147.2 99.2 89.6 0 160-70.4 160-160 0-22.4-6.4-44.8-16-67.2zM560 348.8c-16 9.6-35.2 3.2-44.8-9.6l-96-160c-6.4-9.6-6.4-22.4 0-32s16-16 28.8-16h70.4l-67.2-112c-9.6-16-3.2-35.2 9.6-44.8 6.4-6.4 12.8-6.4 19.2-6.4 9.6 0 22.4 6.4 28.8 16l96 160c6.4 9.6 6.4 22.4 0 32s-16 16-28.8 16h-70.4l67.2 112c6.4 16 3.2 35.2-12.8 44.8z" />
<glyph unicode="&#xe62c;" glyph-name="weather-glyph_sun-cloud-rain" d="M640 928v-32c0-19.2 12.8-32 32-32s32 12.8 32 32v32c0 19.2-12.8 32-32 32s-32-12.8-32-32zM899.2 790.4l22.4 22.4c12.8 12.8 12.8 32 0 44.8s-32 12.8-44.8 0l-22.4-22.4c-12.8-12.8-12.8-32 0-44.8 6.4-6.4 16-9.6 22.4-9.6s16 3.2 22.4 9.6zM992 640h-32c-19.2 0-32-12.8-32-32s12.8-32 32-32h32c19.2 0 32 12.8 32 32s-12.8 32-32 32zM444.8 790.4c6.4-6.4 16-9.6 22.4-9.6s16 3.2 22.4 9.6c12.8 12.8 12.8 32 0 44.8l-22.4 22.4c-12.8 12.8-32 12.8-44.8 0s-12.8-32 0-44.8l22.4-22.4zM883.2 531.2c9.6 25.6 12.8 51.2 12.8 76.8 0 124.8-99.2 224-224 224-102.4 0-188.8-67.2-217.6-163.2-83.2-9.6-160-60.8-201.6-134.4-16 3.2-32 6.4-48 6.4-112 0-204.8-92.8-204.8-204.8s92.8-208 208-208h144v192c0 19.2 12.8 32 32 32s32-12.8 32-32v-192h64v96c0 19.2 12.8 32 32 32s32-12.8 32-32v-96h64v192c0 19.2 12.8 32 32 32s32-12.8 32-32v-192h144c115.2 0 208 92.8 208 208 0 89.6-60.8 166.4-140.8 195.2zM816 540.8c-28.8 0-57.6-6.4-83.2-19.2-41.6 80-118.4 134.4-208 147.2 22.4 57.6 83.2 99.2 147.2 99.2 89.6 0 160-70.4 160-160 0-22.4-6.4-44.8-16-67.2zM352 64c0-19.2 12.8-32 32-32s32 12.8 32 32v64h-64v-64zM480-32c0-19.2 12.8-32 32-32s32 12.8 32 32v160h-64v-160zM608 64c0-19.2 12.8-32 32-32s32 12.8 32 32v64h-64v-64z" />
<glyph unicode="&#xe62d;" glyph-name="weather-glyph_sun-cloud-snow-54" d="M672 960c-19.2 0-32-12.8-32-32v-32c0-19.2 12.8-32 32-32s32 12.8 32 32v32c0 19.2-12.8 32-32 32zM876.8 780.8c9.6 0 16 3.2 22.4 9.6l22.4 22.4c12.8 12.8 12.8 32 0 44.8s-32 12.8-44.8 0l-22.4-22.4c-12.8-12.8-12.8-32 0-44.8 6.4-6.4 12.8-9.6 22.4-9.6zM992 640h-32c-19.2 0-32-12.8-32-32s12.8-32 32-32h32c19.2 0 32 12.8 32 32s-12.8 32-32 32zM422.4 857.6c-12.8-12.8-12.8-32 0-44.8l22.4-22.4c6.4-6.4 16-9.6 22.4-9.6s16 3.2 22.4 9.6c12.8 12.8 12.8 32 0 44.8l-22.4 22.4c-12.8 12.8-32 12.8-44.8 0zM883.2 531.2c9.6 25.6 12.8 51.2 12.8 76.8 0 124.8-99.2 224-224 224-102.4 0-188.8-67.2-217.6-163.2-83.2-9.6-160-60.8-201.6-134.4-16 3.2-32 6.4-48 6.4-112 0-204.8-92.8-204.8-204.8 0-115.2 92.8-208 208-208h272v32c0 19.2 12.8 32 32 32s32-12.8 32-32v-32h272c115.2 0 208 92.8 208 208 0 89.6-60.8 166.4-140.8 195.2zM416 224c0-19.2-12.8-32-32-32s-32 12.8-32 32v32c0 19.2 12.8 32 32 32s32-12.8 32-32v-32zM672 224c0-19.2-12.8-32-32-32s-32 12.8-32 32v32c0 19.2 12.8 32 32 32s32-12.8 32-32v-32zM816 540.8c-28.8 0-57.6-6.4-83.2-19.2-41.6 80-118.4 134.4-208 147.2 22.4 57.6 83.2 99.2 147.2 99.2 89.6 0 160-70.4 160-160 0-22.4-6.4-44.8-16-67.2zM512 32c-19.2 0-32-12.8-32-32v-32c0-19.2 12.8-32 32-32s32 12.8 32 32v32c0 19.2-12.8 32-32 32zM384 96c-19.2 0-32-12.8-32-32v-32c0-19.2 12.8-32 32-32s32 12.8 32 32v32c0 19.2-12.8 32-32 32zM640 96c-19.2 0-32-12.8-32-32v-32c0-19.2 12.8-32 32-32s32 12.8 32 32v32c0 19.2-12.8 32-32 32z" />
<glyph unicode="&#xe62e;" glyph-name="weather-glyph_sun-cloud-snow-55" d="M640 896v-32c0-19.2 12.8-32 32-32s32 12.8 32 32v32c0 19.2-12.8 32-32 32s-32-12.8-32-32zM876.8 748.8c9.6 0 16 3.2 22.4 9.6l22.4 22.4c12.8 12.8 12.8 32 0 44.8s-32 12.8-44.8 0l-22.4-22.4c-12.8-12.8-12.8-32 0-44.8 6.4-6.4 12.8-9.6 22.4-9.6zM992 608h-32c-19.2 0-32-12.8-32-32s12.8-32 32-32h32c19.2 0 32 12.8 32 32s-12.8 32-32 32zM422.4 825.6c-12.8-12.8-12.8-32 0-44.8l22.4-22.4c6.4-6.4 16-9.6 22.4-9.6s16 3.2 22.4 9.6c12.8 12.8 12.8 32 0 44.8l-22.4 22.4c-12.8 12.8-32 12.8-44.8 0zM883.2 499.2c9.6 25.6 12.8 51.2 12.8 76.8 0 124.8-99.2 224-224 224-102.4 0-188.8-67.2-217.6-163.2-83.2-9.6-160-60.8-201.6-134.4-16 3.2-32 6.4-48 6.4-112 0-204.8-92.8-204.8-204.8 0-115.2 92.8-208 208-208h105.6c3.2 12.8 9.6 22.4 19.2 32-25.6 28.8-32 73.6-12.8 112 16 28.8 48 48 83.2 48 6.4 0 12.8 0 19.2-3.2 12.8 38.4 48 67.2 92.8 67.2s80-28.8 92.8-67.2c6.4 0 12.8 3.2 19.2 3.2 35.2 0 67.2-19.2 83.2-48 22.4-38.4 16-83.2-12.8-112 9.6-9.6 16-19.2 19.2-32h105.6c115.2 0 208 92.8 208 208-6.4 89.6-67.2 166.4-147.2 195.2zM816 508.8c-28.8 0-57.6-6.4-83.2-19.2-41.6 80-118.4 134.4-208 147.2 22.4 57.6 83.2 99.2 147.2 99.2 89.6 0 160-70.4 160-160 0-22.4-6.4-44.8-16-67.2zM649.6 208c-9.6 16-28.8 19.2-44.8 12.8l-64-35.2v70.4c0 19.2-12.8 32-32 32s-32-12.8-32-32v-73.6l-64 35.2c-16 9.6-35.2 3.2-44.8-12.8s-3.2-35.2 12.8-44.8l64-35.2-64-35.2c-16-9.6-19.2-28.8-12.8-44.8 6.4-9.6 16-16 28.8-16 6.4 0 9.6 0 16 3.2l64 35.2v-67.2c0-19.2 12.8-32 32-32s32 12.8 32 32v73.6l64-35.2c6.4-3.2 9.6-3.2 16-3.2 9.6 0 22.4 6.4 28.8 16 9.6 16 3.2 35.2-12.8 44.8l-60.8 32 64 35.2c12.8 9.6 19.2 28.8 9.6 44.8z" />
<glyph unicode="&#xe62f;" glyph-name="weather-glyph_sun-cloud" d="M480 928v-64c0-19.2 12.8-32 32-32s32 12.8 32 32v64c0 19.2-12.8 32-32 32s-32-12.8-32-32zM828.8 809.6l-44.8-44.8c-12.8-12.8-12.8-32 0-44.8 6.4-6.4 16-9.6 22.4-9.6s16 3.2 22.4 9.6l44.8 44.8c12.8 12.8 12.8 32 0 44.8s-32 12.8-44.8 0zM992 480h-64c-19.2 0-32-12.8-32-32s12.8-32 32-32h64c19.2 0 32 12.8 32 32s-12.8 32-32 32zM96 416c19.2 0 32 12.8 32 32s-12.8 32-32 32h-64c-19.2 0-32-12.8-32-32s12.8-32 32-32h64zM150.4 809.6c-12.8-12.8-12.8-32 0-44.8l44.8-44.8c6.4-6.4 16-9.6 22.4-9.6s16 3.2 22.4 9.6c12.8 12.8 12.8 32 0 44.8l-44.8 44.8c-12.8 12.8-32 12.8-44.8 0zM816 348.8c0 0 0 0 0 0 9.6 32 16 64 16 99.2 0 176-144 320-320 320s-320-144-320-320c0-35.2 6.4-67.2 16-99.2 0 0 0 0-3.2 0-112 0-204.8-92.8-204.8-204.8 0-115.2 92.8-208 208-208h611.2c115.2 0 208 92.8 208 208-3.2 112-96 204.8-211.2 204.8zM739.2 332.8c-3.2 0-6.4-3.2-6.4-3.2-44.8 89.6-137.6 150.4-243.2 150.4-89.6 0-169.6-44.8-220.8-112-6.4 25.6-12.8 51.2-12.8 80 0 140.8 115.2 256 256 256s256-115.2 256-256c0-38.4-9.6-80-28.8-115.2z" />
<glyph unicode="&#xe630;" glyph-name="weather-glyph_sun-fog-29" d="M64 256c0-19.2 12.8-32 32-32h832c19.2 0 32 12.8 32 32s-12.8 32-32 32h-832c-19.2 0-32-12.8-32-32zM864 128c0 19.2-12.8 32-32 32h-640c-19.2 0-32-12.8-32-32s12.8-32 32-32h640c19.2 0 32 12.8 32 32zM768 0c0 19.2-12.8 32-32 32h-448c-19.2 0-32-12.8-32-32s12.8-32 32-32h448c19.2 0 32 12.8 32 32zM96 448h-64c-19.2 0-32-12.8-32-32s12.8-32 32-32h64c19.2 0 32 12.8 32 32s-12.8 32-32 32zM195.2 777.6c-12.8 12.8-32 12.8-44.8 0s-12.8-32 0-44.8l44.8-44.8c6.4-6.4 16-9.6 22.4-9.6s16 3.2 22.4 9.6c12.8 12.8 12.8 32 0 44.8l-44.8 44.8zM544 832v64c0 19.2-12.8 32-32 32s-32-12.8-32-32v-64c0-19.2 12.8-32 32-32s32 12.8 32 32zM828.8 688l44.8 44.8c12.8 12.8 12.8 32 0 44.8s-32 12.8-44.8 0l-44.8-44.8c-12.8-12.8-12.8-32 0-44.8 6.4-6.4 16-9.6 22.4-9.6s16 3.2 22.4 9.6zM992 448h-64c-19.2 0-32-12.8-32-32s12.8-32 32-32h64c19.2 0 32 12.8 32 32s-12.8 32-32 32zM224 416c0-19.2 12.8-32 32-32h512c0 0 0 0 0 0 19.2 0 32 12.8 32 32 0 3.2 0 3.2 0 6.4-3.2 156.8-131.2 281.6-288 281.6-160 0-288-128-288-288z" />
<glyph unicode="&#xe631;" glyph-name="weather-glyph_sun-fog-30" d="M992 320h-960c-19.2 0-32-12.8-32-32s12.8-32 32-32h960c19.2 0 32 12.8 32 32s-12.8 32-32 32zM896 160c0 19.2-12.8 32-32 32h-704c-19.2 0-32-12.8-32-32s12.8-32 32-32h704c19.2 0 32 12.8 32 32zM288 64c-19.2 0-32-12.8-32-32s12.8-32 32-32h448c19.2 0 32 12.8 32 32s-12.8 32-32 32h-448zM512 896c-265.6 0-480-214.4-480-480 0-19.2 12.8-32 32-32h896c0 0 0 0 0 0 19.2 0 32 12.8 32 32 0 3.2 0 3.2 0 6.4-3.2 262.4-217.6 473.6-480 473.6z" />
<glyph unicode="&#xe632;" glyph-name="weather-glyph_sun-fog-43" d="M32 384h64c19.2 0 32 12.8 32 32s-12.8 32-32 32h-64c-19.2 0-32-12.8-32-32s12.8-32 32-32zM150.4 732.8l44.8-44.8c6.4-6.4 16-9.6 22.4-9.6s16 3.2 22.4 9.6c12.8 12.8 12.8 32 0 44.8l-44.8 44.8c-12.8 12.8-32 12.8-44.8 0s-12.8-32 0-44.8zM512 928c-19.2 0-32-12.8-32-32v-64c0-19.2 12.8-32 32-32s32 12.8 32 32v64c0 19.2-12.8 32-32 32zM828.8 777.6l-44.8-44.8c-12.8-12.8-12.8-32 0-44.8 6.4-6.4 16-9.6 22.4-9.6s16 3.2 22.4 9.6l44.8 44.8c12.8 12.8 12.8 32 0 44.8s-32 12.8-44.8 0zM992 448h-64c-19.2 0-32-12.8-32-32s12.8-32 32-32h64c19.2 0 32 12.8 32 32s-12.8 32-32 32zM828.8 54.4c6.4-6.4 16-9.6 22.4-9.6s16 3.2 22.4 9.6c12.8 12.8 12.8 32 0 44.8l-44.8 44.8c-12.8 12.8-32 12.8-44.8 0s-12.8-32 0-44.8l44.8-44.8zM800 416c0 160-128 288-288 288s-288-128-288-288c0-57.6 19.2-115.2 48-160h112c54.4 0 96-41.6 96-96 0-9.6-3.2-19.2-6.4-28.8 12.8 0 25.6-3.2 38.4-3.2 160 0 288 128 288 288zM32 160c0-19.2 12.8-32 32-32h320c19.2 0 32 12.8 32 32s-12.8 32-32 32h-320c-19.2 0-32-12.8-32-32zM576 32c0 19.2-12.8 32-32 32h-320c-19.2 0-32-12.8-32-32s12.8-32 32-32h320c19.2 0 32 12.8 32 32z" />
<glyph unicode="&#xe633;" glyph-name="weather-glyph_sun" d="M32 416h64c19.2 0 32 12.8 32 32s-12.8 32-32 32h-64c-19.2 0-32-12.8-32-32s12.8-32 32-32zM195.2 720c6.4-6.4 16-9.6 22.4-9.6s16 3.2 22.4 9.6c12.8 12.8 12.8 32 0 44.8l-44.8 44.8c-12.8 12.8-32 12.8-44.8 0s-12.8-32 0-44.8l44.8-44.8zM512 832c19.2 0 32 12.8 32 32v64c0 19.2-12.8 32-32 32s-32-12.8-32-32v-64c0-19.2 12.8-32 32-32zM806.4 710.4c6.4 0 16 3.2 22.4 9.6l44.8 44.8c12.8 12.8 12.8 32 0 44.8s-32 12.8-44.8 0l-44.8-44.8c-12.8-12.8-12.8-32 0-44.8 6.4-6.4 16-9.6 22.4-9.6zM992 480h-64c-19.2 0-32-12.8-32-32s12.8-32 32-32h64c19.2 0 32 12.8 32 32s-12.8 32-32 32zM828.8 176c-12.8 12.8-32 12.8-44.8 0s-12.8-32 0-44.8l44.8-44.8c6.4-6.4 16-9.6 22.4-9.6s16 3.2 22.4 9.6c12.8 12.8 12.8 32 0 44.8l-44.8 44.8zM480 32v-64c0-19.2 12.8-32 32-32s32 12.8 32 32v64c0 19.2-12.8 32-32 32s-32-12.8-32-32zM172.8 76.8c6.4 0 16 3.2 22.4 9.6l44.8 44.8c12.8 12.8 12.8 32 0 44.8s-32 12.8-44.8 0l-44.8-44.8c-12.8-12.8-12.8-32 0-44.8 6.4-6.4 16-9.6 22.4-9.6zM512 160c160 0 288 128 288 288s-128 288-288 288-288-128-288-288 128-288 288-288z" />
<glyph unicode="&#xe634;" glyph-name="weather-glyph_wind" d="M0 608c0-19.2 12.8-32 32-32h560c89.6 0 163.2 73.6 163.2 163.2s-73.6 163.2-163.2 163.2c-70.4 0-131.2-44.8-153.6-108.8-6.4-16 3.2-35.2 19.2-41.6s35.2 3.2 41.6 19.2c12.8 38.4 51.2 67.2 92.8 67.2 54.4 0 99.2-44.8 99.2-99.2s-44.8-99.2-99.2-99.2h-560c-19.2 0-32-12.8-32-32zM329.6 320h-297.6c-19.2 0-32-12.8-32-32s12.8-32 32-32h297.6c54.4 0 99.2-44.8 99.2-99.2s-44.8-99.2-99.2-99.2c-41.6 0-80 25.6-92.8 67.2-6.4 16-25.6 25.6-41.6 19.2s-25.6-25.6-19.2-41.6c22.4-64 83.2-108.8 153.6-108.8 89.6 0 163.2 73.6 163.2 163.2s-73.6 163.2-163.2 163.2zM860.8 480h-828.8c-19.2 0-32-12.8-32-32s12.8-32 32-32h828.8c54.4 0 99.2-44.8 99.2-99.2s-44.8-99.2-99.2-99.2c-41.6 0-80 25.6-92.8 67.2-6.4 16-25.6 25.6-41.6 19.2s-25.6-25.6-19.2-41.6c22.4-64 83.2-108.8 153.6-108.8 89.6 0 163.2 73.6 163.2 163.2s-73.6 163.2-163.2 163.2z" />
<glyph unicode="&#xe717;" glyph-name="transportation-glyph_air-baloon" d="M608 128h-192c-19.2 0-32-12.8-32-32v-128c0-19.2 12.8-32 32-32h192c19.2 0 32 12.8 32 32v128c0 19.2-12.8 32-32 32zM512 960c0 0 0 0 0 0s0 0 0 0 0 0 0 0 0 0 0 0c-188.8 0-352-166.4-352-352 0-169.6 192-396.8 198.4-406.4 6.4-6.4 16-9.6 25.6-9.6h32c0 0 0 0 0 0s0 0 0 0h224c9.6 0 19.2 3.2 25.6 9.6 6.4 9.6 198.4 236.8 198.4 406.4 0 185.6-163.2 352-352 352zM355.2 313.6c-54.4 73.6-131.2 198.4-131.2 294.4 0 105.6 67.2 204.8 160 252.8-108.8-153.6-64-406.4-28.8-547.2zM480 256h-41.6c-28.8 92.8-137.6 476.8 41.6 614.4v-614.4zM585.6 256h-41.6v614.4c179.2-137.6 70.4-521.6 41.6-614.4zM668.8 313.6c35.2 137.6 80 393.6-28.8 547.2 92.8-51.2 160-147.2 160-252.8 0-96-76.8-220.8-131.2-294.4z" />
<glyph unicode="&#xe718;" glyph-name="transportation-glyph_bike-sport" d="M800 544l-28.8 192h92.8c19.2 0 32-12.8 32-32s-12.8-32-32-32c-19.2 0-32-12.8-32-32s12.8-32 32-32c54.4 0 96 41.6 96 96s-41.6 96-96 96h-224c-19.2 0-32-12.8-32-32s12.8-32 32-32h67.2l12.8-96h-432c-16 0-28.8-9.6-32-25.6l-16-70.4c-6.4 0-9.6 0-16 0-124.8 0-224-99.2-224-224s99.2-224 224-224 224 99.2 224 224c0 96-60.8 176-144 208l9.6 48h416l6.4-41.6c-92.8-28.8-160-112-160-214.4 0-124.8 99.2-224 224-224s224 99.2 224 224c0 124.8-99.2 224-224 224zM384 320c0-89.6-70.4-160-160-160s-160 70.4-160 160 70.4 160 160 160c0 0 3.2 0 3.2 0l-35.2-153.6c-3.2-16 6.4-35.2 25.6-38.4 3.2 0 3.2 0 6.4 0 16 0 28.8 9.6 32 25.6l32 153.6c57.6-25.6 96-83.2 96-147.2zM800 160c-89.6 0-160 70.4-160 160 0 70.4 44.8 128 105.6 150.4l22.4-153.6c3.2-16 16-28.8 32-28.8 0 0 3.2 0 3.2 0 16 3.2 28.8 19.2 25.6 35.2l-19.2 156.8c83.2-6.4 150.4-73.6 150.4-160 0-89.6-70.4-160-160-160zM224 768c-19.2 0-32-12.8-32-32s12.8-32 32-32h160c19.2 0 32 12.8 32 32s-12.8 32-32 32h-160z" />
<glyph unicode="&#xe719;" glyph-name="transportation-glyph_bike" d="M800 544l-32 227.2c-3.2 16-16 28.8-32 28.8h-160c-19.2 0-32-12.8-32-32s12.8-32 32-32h131.2l12.8-96h-432c-16 0-28.8-9.6-32-25.6l-16-70.4c-6.4 0-9.6 0-16 0-124.8 0-224-99.2-224-224s99.2-224 224-224 224 99.2 224 224c0 96-60.8 176-144 208l9.6 48h416l6.4-41.6c-92.8-28.8-160-112-160-214.4 0-124.8 99.2-224 224-224s224 99.2 224 224c0 124.8-99.2 224-224 224zM384 320c0-89.6-70.4-160-160-160s-160 70.4-160 160 70.4 160 160 160c0 0 3.2 0 3.2 0l-35.2-153.6c-3.2-16 6.4-35.2 25.6-38.4 3.2 0 3.2 0 6.4 0 16 0 28.8 9.6 32 25.6l32 153.6c57.6-25.6 96-83.2 96-147.2zM800 160c-89.6 0-160 70.4-160 160 0 70.4 44.8 128 105.6 150.4l22.4-153.6c3.2-16 16-28.8 32-28.8 0 0 3.2 0 3.2 0 16 3.2 28.8 19.2 25.6 35.2l-19.2 156.8c83.2-6.4 150.4-73.6 150.4-160 0-89.6-70.4-160-160-160zM384 704c19.2 0 32 12.8 32 32s-12.8 32-32 32h-160c-19.2 0-32-12.8-32-32s12.8-32 32-32h160z" />
<glyph unicode="&#xe71a;" glyph-name="transportation-glyph_boat-front" d="M163.2 118.4c6.4-16 22.4-25.6 41.6-19.2 16 6.4 25.6 22.4 19.2 41.6l-54.4 166.4 313.6 182.4v-329.6c0-19.2 12.8-32 32-32s32 12.8 32 32v329.6l313.6-182.4-54.4-166.4c-6.4-16 3.2-35.2 19.2-41.6 3.2 0 6.4-3.2 9.6-3.2 12.8 0 25.6 9.6 28.8 22.4l64 192c3.2 12.8 0 28.8-12.8 38.4l-384 224c0 0-3.2 0-3.2 0s-3.2 0-3.2 0c-6.4 3.2-16 3.2-22.4 0 0 0-3.2 0-3.2 0s-3.2 0-3.2 0l-384-224c-12.8-6.4-19.2-22.4-12.8-38.4l64-192zM160-64c41.6 0 83.2 16 112 48 28.8-32 70.4-48 112-48s83.2 16 112 48c28.8-28.8 70.4-48 112-48s83.2 16 112 48c28.8-28.8 70.4-48 112-48 89.6 0 160 70.4 160 160 0 19.2-12.8 32-32 32s-32-12.8-32-32c0-54.4-41.6-96-96-96-35.2 0-67.2 19.2-83.2 51.2-12.8 19.2-44.8 19.2-57.6 0-16-32-48-51.2-83.2-51.2s-67.2 19.2-83.2 51.2c-12.8 19.2-44.8 19.2-57.6 0-16-32-48-51.2-83.2-51.2s-67.2 19.2-83.2 51.2c-12.8 19.2-44.8 19.2-57.6 0-16-32-48-51.2-83.2-51.2-54.4 0-96 41.6-96 96 0 19.2-12.8 32-32 32s-32-12.8-32-32c0-89.6 70.4-160 160-160zM640 928c0 19.2-12.8 32-32 32h-192c-19.2 0-32-12.8-32-32v-32h256v32zM512 640c16 0 35.2-3.2 48-12.8l272-160v236.8c0 19.2-12.8 32-32 32h-160v96h-256v-96h-160c-19.2 0-32-12.8-32-32v-236.8l272 160c12.8 9.6 32 12.8 48 12.8z" />
<glyph unicode="&#xe71b;" glyph-name="transportation-glyph_boat-small-02" d="M67.2 22.4c3.2-12.8 16-22.4 28.8-22.4h736c9.6 0 16 3.2 22.4 9.6l96 96c9.6 9.6 12.8 22.4 6.4 35.2-3.2 12.8-16 19.2-28.8 19.2h-864c-9.6 0-19.2-6.4-25.6-12.8-6.4-9.6-9.6-19.2-3.2-28.8l32-96zM672 224h160c9.6 0 22.4 6.4 28.8 16s6.4 22.4 0 32l-160 320c-6.4 12.8-22.4 19.2-35.2 16-16-3.2-25.6-16-25.6-32v-320c0-19.2 12.8-32 32-32zM128 224h416c19.2 0 32 12.8 32 32v576c0 12.8-9.6 25.6-22.4 32-12.8 3.2-28.8 0-35.2-12.8l-416-576c-6.4-9.6-9.6-22.4-3.2-32 6.4-12.8 16-19.2 28.8-19.2z" />
<glyph unicode="&#xe71c;" glyph-name="transportation-glyph_boat-small-03" d="M67.2 22.4c3.2-12.8 16-22.4 28.8-22.4h736c9.6 0 16 3.2 22.4 9.6l96 96c9.6 9.6 12.8 22.4 6.4 35.2-3.2 12.8-16 19.2-28.8 19.2h-864c-9.6 0-19.2-6.4-25.6-12.8-6.4-9.6-9.6-19.2-3.2-28.8l32-96zM128 224h416c19.2 0 32 12.8 32 32v576c0 12.8-9.6 25.6-22.4 32-12.8 3.2-28.8 0-35.2-12.8l-416-576c-6.4-9.6-9.6-22.4-3.2-32 6.4-12.8 16-19.2 28.8-19.2z" />
<glyph unicode="&#xe71d;" glyph-name="transportation-glyph_boat" d="M160 0c41.6 0 83.2 16 112 48 28.8-32 70.4-48 112-48s83.2 16 112 48c28.8-28.8 70.4-48 112-48s83.2 16 112 48c28.8-28.8 70.4-48 112-48 89.6 0 160 70.4 160 160 0 19.2-12.8 32-32 32s-32-12.8-32-32c0-54.4-41.6-96-96-96-35.2 0-67.2 19.2-83.2 51.2-12.8 19.2-44.8 19.2-57.6 0-16-32-48-51.2-83.2-51.2s-67.2 19.2-83.2 51.2c-12.8 19.2-44.8 19.2-57.6 0-16-32-48-51.2-83.2-51.2s-67.2 19.2-83.2 51.2c-12.8 19.2-44.8 19.2-57.6 0-16-32-48-51.2-83.2-51.2-54.4 0-96 41.6-96 96 0 19.2-12.8 32-32 32s-32-12.8-32-32c0-89.6 70.4-160 160-160zM131.2 179.2c3.2-12.8 16-19.2 28.8-19.2 3.2 0 6.4 0 12.8 3.2 16 6.4 25.6 25.6 19.2 41.6l-83.2 211.2h723.2c0 0 0 0 0 0h70.4l-128-208c-9.6-16-6.4-35.2 9.6-44.8s35.2-6.4 44.8 9.6l160 256c6.4 9.6 6.4 22.4 0 32s-16 19.2-28.8 19.2h-112l-118.4 179.2c-6.4 6.4-16 12.8-25.6 12.8h-256v128h-224v-128h-64c-19.2 0-32-12.8-32-32v-160h-64c-9.6 0-19.2-6.4-25.6-12.8-6.4-9.6-9.6-19.2-3.2-32l96-256zM608 576h32c19.2 0 32-12.8 32-32s-12.8-32-32-32h-32c-19.2 0-32 12.8-32 32s12.8 32 32 32zM448 576h32c19.2 0 32-12.8 32-32s-12.8-32-32-32h-32c-19.2 0-32 12.8-32 32s12.8 32 32 32zM288 576h32c19.2 0 32-12.8 32-32s-12.8-32-32-32h-32c-19.2 0-32 12.8-32 32s12.8 32 32 32zM448 896c0 19.2-12.8 32-32 32h-160c-19.2 0-32-12.8-32-32v-32h224v32z" />
<glyph unicode="&#xe71e;" glyph-name="transportation-glyph_bus-front-10" d="M128 64h32v-64c0-19.2 12.8-32 32-32h128c19.2 0 32 12.8 32 32v64h320v-64c0-19.2 12.8-32 32-32h128c19.2 0 32 12.8 32 32v64h32c19.2 0 32 12.8 32 32v768c0 54.4-41.6 96-96 96h-640c-54.4 0-96-41.6-96-96v-768c0-19.2 12.8-32 32-32zM352 192h-96c-19.2 0-32 12.8-32 32s12.8 32 32 32h96c19.2 0 32-12.8 32-32s-12.8-32-32-32zM768 192h-96c-19.2 0-32 12.8-32 32s12.8 32 32 32h96c19.2 0 32-12.8 32-32s-12.8-32-32-32zM448 864h128c19.2 0 32-12.8 32-32s-12.8-32-32-32h-128c-19.2 0-32 12.8-32 32s12.8 32 32 32zM160 704h704v-320h-704v320z" />
<glyph unicode="&#xe71f;" glyph-name="transportation-glyph_bus-front-12" d="M32 384c19.2 0 32 12.8 32 32v96c0 19.2-12.8 32-32 32s-32-12.8-32-32v-96c0-19.2 12.8-32 32-32zM992 544c-19.2 0-32-12.8-32-32v-96c0-19.2 12.8-32 32-32s32 12.8 32 32v96c0 19.2-12.8 32-32 32zM704-32h128c19.2 0 32 12.8 32 32v64h32c19.2 0 32 12.8 32 32v768c0 54.4-41.6 96-96 96h-640c-54.4 0-96-41.6-96-96v-768c0-19.2 12.8-32 32-32h32v-64c0-19.2 12.8-32 32-32h128c19.2 0 32 12.8 32 32v64h320v-64c0-19.2 12.8-32 32-32zM448 864h128c19.2 0 32-12.8 32-32s-12.8-32-32-32h-128c-19.2 0-32 12.8-32 32s12.8 32 32 32zM160 384v320h704v-320h-704zM352 192h-96c-19.2 0-32 12.8-32 32s12.8 32 32 32h96c19.2 0 32-12.8 32-32s-12.8-32-32-32zM640 224c0 19.2 12.8 32 32 32h96c19.2 0 32-12.8 32-32s-12.8-32-32-32h-96c-19.2 0-32 12.8-32 32z" />
<glyph unicode="&#xe720;" glyph-name="transportation-glyph_bus" d="M928 800h-832c-54.4 0-96-41.6-96-96v-448c0-19.2 12.8-32 32-32h67.2c12.8-54.4 64-96 124.8-96s108.8 41.6 124.8 96h329.6c12.8-54.4 64-96 124.8-96s108.8 41.6 124.8 96h64c19.2 0 32 12.8 32 32v448c0 54.4-41.6 96-96 96zM224 192c-35.2 0-64 28.8-64 64s28.8 64 64 64 64-28.8 64-64-28.8-64-64-64zM608 480c0-19.2-12.8-32-32-32h-416c-19.2 0-32 12.8-32 32v160c0 19.2 12.8 32 32 32h416c19.2 0 32-12.8 32-32v-160zM800 192c-35.2 0-64 28.8-64 64s28.8 64 64 64 64-28.8 64-64-28.8-64-64-64zM896 480c0-19.2-12.8-32-32-32h-128c-19.2 0-32 12.8-32 32v160c0 19.2 12.8 32 32 32h128c19.2 0 32-12.8 32-32v-160z" />
<glyph unicode="&#xe721;" glyph-name="transportation-glyph_car-front" d="M924.8 528l-48 262.4c-9.6 60.8-64 105.6-124.8 105.6h-480c-60.8 0-115.2-44.8-124.8-105.6l-48-262.4-60.8-60.8c-25.6-25.6-38.4-57.6-38.4-89.6v-185.6c0-19.2 12.8-32 32-32h32v-96c0-19.2 12.8-32 32-32h128c19.2 0 32 12.8 32 32v96h512v-96c0-19.2 12.8-32 32-32h128c19.2 0 32 12.8 32 32v96h32c19.2 0 32 12.8 32 32v185.6c0 35.2-12.8 67.2-38.4 89.6l-60.8 60.8zM208 780.8c6.4 32 32 51.2 64 51.2h480c32 0 57.6-22.4 64-51.2l41.6-236.8h-691.2l41.6 236.8zM224 288c-35.2 0-64 28.8-64 64s28.8 64 64 64 64-28.8 64-64c0-35.2-28.8-64-64-64zM608 320h-192c-19.2 0-32 12.8-32 32s12.8 32 32 32h192c19.2 0 32-12.8 32-32s-12.8-32-32-32zM800 288c-35.2 0-64 28.8-64 64s28.8 64 64 64 64-28.8 64-64c0-35.2-28.8-64-64-64z" />
<glyph unicode="&#xe722;" glyph-name="transportation-glyph_car-simple" d="M992 544h-204.8l-118.4 208c-6.4 9.6-16 16-28.8 16h-384c-12.8 0-25.6-6.4-28.8-19.2l-89.6-204.8h-105.6c-19.2 0-32-12.8-32-32v-256c0-19.2 12.8-32 32-32h67.2c12.8-54.4 64-96 124.8-96s108.8 41.6 124.8 96h329.6c12.8-54.4 64-96 124.8-96s108.8 41.6 124.8 96h64c19.2 0 32 12.8 32 32v256c0 19.2-12.8 32-32 32zM224 192c-35.2 0-64 28.8-64 64s28.8 64 64 64 64-28.8 64-64-28.8-64-64-64zM608 480h-128c-19.2 0-32 12.8-32 32v128c0 19.2 12.8 32 32 32s32-12.8 32-32v-96h96c19.2 0 32-12.8 32-32s-12.8-32-32-32zM800 192c-35.2 0-64 28.8-64 64s28.8 64 64 64 64-28.8 64-64-28.8-64-64-64z" />
<glyph unicode="&#xe723;" glyph-name="transportation-glyph_car-sport" d="M96 224h35.2c12.8-54.4 64-96 124.8-96s108.8 41.6 124.8 96h233.6c12.8-54.4 64-96 124.8-96s108.8 41.6 124.8 96h64c16 0 28.8 12.8 32 28.8l32 256c0 9.6-3.2 19.2-6.4 25.6-6.4 6.4-16 9.6-25.6 9.6h-304l-118.4 179.2c-6.4 6.4-16 12.8-25.6 12.8h-288c-12.8 0-25.6-9.6-28.8-22.4l-57.6-169.6h-105.6c-19.2 0-32-12.8-32-32v-192c0-54.4 41.6-96 96-96zM736 320c35.2 0 64-28.8 64-64s-28.8-64-64-64-64 28.8-64 64 28.8 64 64 64zM352 608c0 19.2 12.8 32 32 32s32-12.8 32-32v-64h96c19.2 0 32-12.8 32-32s-12.8-32-32-32h-128c-19.2 0-32 12.8-32 32v96zM256 320c35.2 0 64-28.8 64-64s-28.8-64-64-64-64 28.8-64 64 28.8 64 64 64z" />
<glyph unicode="&#xe724;" glyph-name="transportation-glyph_car-taxi" d="M966.4 406.4l-41.6 28.8-48 259.2c-9.6 60.8-64 105.6-124.8 105.6h-80v96c0 19.2-12.8 32-32 32h-256c-19.2 0-32-12.8-32-32v-96h-80c-60.8 0-115.2-44.8-124.8-105.6l-48-259.2-41.6-28.8c-35.2-22.4-57.6-64-57.6-105.6v-172.8c0-19.2 12.8-32 32-32h32v-64c0-19.2 12.8-32 32-32h128c19.2 0 32 12.8 32 32v64h512v-64c0-19.2 12.8-32 32-32h128c19.2 0 32 12.8 32 32v64h32c19.2 0 32 12.8 32 32v172.8c0 41.6-22.4 83.2-57.6 105.6zM192 192c-35.2 0-64 28.8-64 64s28.8 64 64 64 64-28.8 64-64c0-35.2-28.8-64-64-64zM608 224h-192c-19.2 0-32 12.8-32 32s12.8 32 32 32h192c19.2 0 32-12.8 32-32s-12.8-32-32-32zM166.4 448l41.6 236.8c6.4 32 32 51.2 64 51.2h480c32 0 57.6-22.4 64-51.2l41.6-236.8h-691.2zM832 192c-35.2 0-64 28.8-64 64s28.8 64 64 64 64-28.8 64-64c0-35.2-28.8-64-64-64z" />
<glyph unicode="&#xe725;" glyph-name="transportation-glyph_car" d="M992 544h-204.8l-118.4 208c-6.4 9.6-16 16-28.8 16h-448c-9.6 0-22.4-6.4-25.6-16l-160-256c-3.2-3.2-6.4-9.6-6.4-16v-192c0-19.2 12.8-32 32-32h64c0-70.4 57.6-128 128-128s128 57.6 128 128h320c0-70.4 57.6-128 128-128s128 57.6 128 128h64c19.2 0 32 12.8 32 32v224c0 19.2-12.8 32-32 32zM224 192c-35.2 0-64 28.8-64 64s28.8 64 64 64 64-28.8 64-64-28.8-64-64-64zM608 480h-128c-19.2 0-32 12.8-32 32v96c0 19.2 12.8 32 32 32s32-12.8 32-32v-64h96c19.2 0 32-12.8 32-32s-12.8-32-32-32zM800 192c-35.2 0-64 28.8-64 64s28.8 64 64 64 64-28.8 64-64-28.8-64-64-64z" />
<glyph unicode="&#xe726;" glyph-name="transportation-glyph_helicopter" d="M992 832c19.2 0 32 12.8 32 32s-12.8 32-32 32h-640c-19.2 0-32-12.8-32-32s12.8-32 32-32h288v-96h-454.4l-25.6 102.4c-3.2 16-16 25.6-32 25.6h-64c-9.6 0-19.2-3.2-22.4-9.6-6.4-9.6-9.6-16-9.6-25.6l32-256c3.2-16 16-28.8 32-28.8h224v-96c0-144 105.6-262.4 243.2-284.8l-41.6-99.2h-169.6c-19.2 0-32-12.8-32-32s12.8-32 32-32h192c0 0 0 0 0 0s0 0 0 0h288c0 0 0 0 0 0s0 0 0 0h64c70.4 0 128 57.6 128 128 0 19.2-12.8 32-32 32s-32-12.8-32-32c0-35.2-28.8-64-64-64h-41.6l-41.6 105.6c121.6 32 214.4 144 214.4 278.4 0 160-128 288-288 288h-32v96h284.8zM592 64l38.4 96h105.6c3.2 0 6.4 0 9.6 0l38.4-96h-192zM864 480c19.2 0 32-12.8 32-32s-12.8-32-32-32h-192c-19.2 0-32 12.8-32 32v128c0 19.2 12.8 32 32 32s32-12.8 32-32v-96h160z" />
<glyph unicode="&#xe727;" glyph-name="transportation-glyph_helmet" d="M534.4 960c-291.2 12.8-534.4-220.8-534.4-512v-352c0-9.6 3.2-19.2 12.8-25.6 6.4-3.2 12.8-6.4 19.2-6.4 3.2 0 6.4 0 6.4 0l467.2 115.2c48-60.8 118.4-102.4 198.4-112v-99.2c0-19.2 12.8-32 32-32s32 12.8 32 32v99.2c144 16 256 137.6 256 284.8v80c0 284.8-214.4 515.2-489.6 528zM64 137.6v278.4h352c19.2 0 32-12.8 32-32v-32c0-41.6 9.6-80 25.6-115.2l-409.6-99.2zM736 192c-54.4 0-96 41.6-96 96s41.6 96 96 96 96-41.6 96-96-41.6-96-96-96z" />
<glyph unicode="&#xe728;" glyph-name="transportation-glyph_light-traffic" d="M832 640c12.8 0 22.4 6.4 28.8 19.2l96 192c6.4 9.6 3.2 22.4 0 32-6.4 6.4-19.2 12.8-28.8 12.8h-128v32c0 19.2-12.8 32-32 32h-512c-19.2 0-32-12.8-32-32v-32h-128c-9.6 0-22.4-6.4-28.8-16-3.2-9.6-3.2-19.2 0-28.8l96-192c6.4-12.8 16-19.2 28.8-19.2h32v-32h-128c-9.6 0-22.4-6.4-28.8-16s-6.4-22.4 0-32l96-192c6.4-9.6 16-16 28.8-16h32v-32h-128c-9.6 0-22.4-6.4-28.8-16s-6.4-22.4 0-32l96-192c6.4-9.6 16-16 28.8-16h32v-96c0-19.2 12.8-32 32-32h512c19.2 0 32 12.8 32 32v96h32c12.8 0 22.4 6.4 28.8 19.2l96 192c6.4 9.6 3.2 22.4 0 32-6.4 6.4-19.2 12.8-28.8 12.8h-128v32h32c12.8 0 22.4 6.4 28.8 19.2l96 192c6.4 9.6 3.2 22.4 0 32-6.4 6.4-19.2 12.8-28.8 12.8h-128v32h32zM800 832h76.8l-64-128h-12.8v128zM224 128h-12.8l-64 128h76.8v-128zM224 416h-12.8l-64 128h76.8v-128zM224 704h-12.8l-64 128h76.8v-128zM512 64c-54.4 0-96 41.6-96 96s41.6 96 96 96 96-41.6 96-96-41.6-96-96-96zM512 352c-54.4 0-96 41.6-96 96s41.6 96 96 96 96-41.6 96-96-41.6-96-96-96zM512 640c-54.4 0-96 41.6-96 96s41.6 96 96 96 96-41.6 96-96-41.6-96-96-96zM876.8 256l-64-128h-12.8v128h76.8zM876.8 544l-64-128h-12.8v128h76.8z" />
<glyph unicode="&#xe729;" glyph-name="transportation-glyph_moto" d="M0 272c0-96 80-176 176-176 80 0 147.2 54.4 169.6 128h361.6c16-73.6 80-128 156.8-128 89.6 0 160 70.4 160 160 0 35.2-12.8 67.2-32 96 0 25.6-6.4 89.6-51.2 134.4 22.4 32 51.2 83.2 51.2 121.6 0 163.2-236.8 220.8-246.4 224s-22.4 0-28.8-9.6l-38.4-38.4c-6.4-6.4-9.6-16-9.6-25.6s6.4-19.2 16-22.4c32-19.2 64-54.4 64-70.4 0-9.6-3.2-16-9.6-19.2l-70.4-115.2c-6.4-12.8-19.2-19.2-28.8-19.2-6.4 0-9.6 0-16 3.2-16 9.6-19.2 28.8-9.6 44.8l57.6 102.4c-137.6 38.4-233.6-32-272-86.4h-131.2l-54.4 54.4c-3.2 3.2-9.6 6.4-16 9.6l-160 32c-9.6 0-19.2 0-25.6-6.4-9.6-6.4-12.8-16-12.8-25.6v-64c0-9.6 3.2-16 9.6-22.4l112-115.2c-70.4-22.4-121.6-89.6-121.6-166.4zM864 352c54.4 0 96-41.6 96-96s-41.6-96-96-96-96 41.6-96 96 41.6 96 96 96zM176 384c60.8 0 112-51.2 112-112s-51.2-112-112-112-112 51.2-112 112 51.2 112 112 112z" />
<glyph unicode="&#xe72a;" glyph-name="transportation-glyph_plane-17" d="M355.2 556.8l192 192-243.2 160c-44.8 28.8-105.6 25.6-144-12.8l-96-96c-9.6-9.6-12.8-19.2-9.6-28.8 0-9.6 6.4-19.2 12.8-22.4l288-192zM809.6 483.2l-192-192 192-288c6.4-6.4 12.8-12.8 22.4-12.8 0 0 3.2 0 3.2 0 9.6 0 16 3.2 22.4 9.6l96 96c38.4 38.4 44.8 99.2 12.8 144l-156.8 243.2zM140.8 131.2c-22.4-35.2 19.2-76.8 54.4-54.4l38.4 25.6 105.6-105.6c22.4-22.4 57.6-3.2 54.4 25.6l-9.6 172.8 137.6 86.4 403.2 403.2c48 48 48 124.8 0 172.8s-124.8 48-172.8 0l-406.4-403.2-86.4-134.4-176 12.8c-28.8 3.2-44.8-32-25.6-54.4l105.6-105.6-22.4-41.6z" />
<glyph unicode="&#xe72b;" glyph-name="transportation-glyph_plane-18" d="M544 864h-192c-9.6 0-22.4-6.4-28.8-16s-6.4-22.4 0-32l89.6-179.2h262.4l-102.4 204.8c-6.4 16-16 22.4-28.8 22.4zM896 576h-627.2l-86.4 86.4c-6.4 6.4-12.8 9.6-22.4 9.6h-96c-9.6 0-19.2-6.4-25.6-12.8-6.4-9.6-9.6-19.2-3.2-28.8l96-288c3.2-12.8 16-22.4 28.8-22.4h288l-124.8-240c-6.4-9.6-3.2-22.4 0-32s19.2-16 28.8-16h192c12.8 0 22.4 6.4 28.8 16l137.6 272h185.6c70.4 0 128 57.6 128 128s-57.6 128-128 128z" />
<glyph unicode="&#xe72c;" glyph-name="transportation-glyph_road" d="M329.6 928c-16 3.2-35.2-6.4-41.6-22.4l-288-896c-6.4-16 3.2-35.2 19.2-41.6 3.2 0 6.4 0 9.6 0 12.8 0 25.6 9.6 32 22.4l288 896c6.4 16-3.2 35.2-19.2 41.6zM736 905.6c-6.4 16-22.4 25.6-41.6 19.2-16-6.4-25.6-22.4-19.2-41.6l288-896c3.2-12.8 16-22.4 32-22.4 3.2 0 6.4 0 9.6 0 16 6.4 25.6 22.4 19.2 41.6l-288 899.2zM512 832c-19.2 0-32-12.8-32-32v-96c0-19.2 12.8-32 32-32s32 12.8 32 32v96c0 19.2-12.8 32-32 32zM512 576c-19.2 0-32-12.8-32-32v-128c0-19.2 12.8-32 32-32s32 12.8 32 32v128c0 19.2-12.8 32-32 32zM512 288c-19.2 0-32-12.8-32-32v-160c0-19.2 12.8-32 32-32s32 12.8 32 32v160c0 19.2-12.8 32-32 32z" />
<glyph unicode="&#xe72d;" glyph-name="transportation-glyph_skateboard" d="M240 448c-60.8 0-112-51.2-112-112s51.2-112 112-112 112 51.2 112 112-51.2 112-112 112zM784 448c-60.8 0-112-51.2-112-112s51.2-112 112-112 112 51.2 112 112-51.2 112-112 112zM992 576h-832c-54.4 0-96 41.6-96 96 0 19.2-12.8 32-32 32s-32-12.8-32-32c0-89.6 70.4-160 160-160h832c19.2 0 32 12.8 32 32s-12.8 32-32 32z" />
<glyph unicode="&#xe72e;" glyph-name="transportation-glyph_tractor" d="M224 480c-124.8 0-224-99.2-224-224s99.2-224 224-224 224 99.2 224 224-99.2 224-224 224zM864 352c9.6 0 22.4 0 32-3.2v35.2c0 54.4-41.6 96-96 96h-32v96c0 19.2 12.8 32 32 32h32c19.2 0 32 12.8 32 32s-12.8 32-32 32h-32c-54.4 0-96-41.6-96-96v-96h-41.6l-121.6 361.6c-3.2 12.8-16 22.4-28.8 22.4h-384c-19.2 0-32-12.8-32-32s12.8-32 32-32h64v-195.2c-38.4-3.2-73.6-12.8-108.8-28.8-16-6.4-22.4-25.6-16-41.6s25.6-22.4 41.6-16c35.2 16 73.6 25.6 115.2 25.6 160 0 288-128 288-288 0-28.8-3.2-57.6-12.8-86.4-3.2-9.6 0-19.2 3.2-28.8 6.4-9.6 16-12.8 25.6-12.8h144c0 9.6 0 22.4 0 32 0 105.6 86.4 192 192 192zM496 480c-57.6 70.4-144 118.4-240 124.8v195.2h233.6l105.6-320h-99.2zM992 160c0-70.692-57.308-128-128-128s-128 57.308-128 128c0 70.692 57.308 128 128 128s128-57.308 128-128z" />
<glyph unicode="&#xe72f;" glyph-name="transportation-glyph_train-speed" d="M992 160h-928c-19.2 0-32-12.8-32-32s12.8-32 32-32h928c19.2 0 32 12.8 32 32s-12.8 32-32 32zM192 224c19.2 0 32 12.8 32 32s-12.8 32-32 32h-64c-19.2 0-32-12.8-32-32s12.8-32 32-32h64zM384 224c19.2 0 32 12.8 32 32s-12.8 32-32 32h-64c-19.2 0-32-12.8-32-32s12.8-32 32-32h64zM576 224c19.2 0 32 12.8 32 32s-12.8 32-32 32h-64c-19.2 0-32-12.8-32-32s12.8-32 32-32h64zM768 224c19.2 0 32 12.8 32 32s-12.8 32-32 32h-64c-19.2 0-32-12.8-32-32s12.8-32 32-32h64zM960 224c19.2 0 32 12.8 32 32s-12.8 32-32 32h-64c-19.2 0-32-12.8-32-32s12.8-32 32-32h64zM992 832h-832c-89.6 0-160-70.4-160-160v-64h224c19.2 0 32-12.8 32-32s-12.8-32-32-32h-224v-160c0-19.2 12.8-32 32-32h960c19.2 0 32 12.8 32 32v160h-576c-19.2 0-32 12.8-32 32s12.8 32 32 32h576v192c0 19.2-12.8 32-32 32z" />
<glyph unicode="&#xe730;" glyph-name="transportation-glyph_train" d="M32 672v-96c0-19.2 12.8-32 32-32s32 12.8 32 32v96c0 19.2-12.8 32-32 32s-32-12.8-32-32zM928 672v-96c0-19.2 12.8-32 32-32s32 12.8 32 32v96c0 19.2-12.8 32-32 32s-32-12.8-32-32zM150.4-60.8c3.2-3.2 6.4-3.2 12.8-3.2 12.8 0 22.4 6.4 28.8 19.2l54.4 108.8h534.4l54.4-108.8c6.4-12.8 16-19.2 28.8-19.2 3.2 0 9.6 0 12.8 3.2 16 6.4 22.4 25.6 16 41.6l-105.6 211.2h44.8c19.2 0 32 12.8 32 32v640c0 54.4-41.6 96-96 96h-512c-54.4 0-96-41.6-96-96v-640c0-19.2 12.8-32 32-32h44.8l-102.4-211.2c-9.6-16 0-35.2 16-41.6zM294.4 822.4c6.4 6.4 16 9.6 25.6 9.6h384c9.6 0 19.2-3.2 25.6-9.6 3.2-9.6 6.4-19.2 6.4-25.6l-32-224c-3.2-16-16-28.8-32-28.8h-320c-16 0-28.8 12.8-32 28.8l-32 224c0 6.4 3.2 16 6.4 25.6zM736 384c0-35.2-28.8-64-64-64s-64 28.8-64 64c0 35.2 28.8 64 64 64s64-28.8 64-64zM352 448c35.2 0 64-28.8 64-64s-28.8-64-64-64-64 28.8-64 64c0 35.2 28.8 64 64 64zM307.2 192h409.6l32-64h-473.6l32 64z" />
<glyph unicode="&#xe731;" glyph-name="transportation-glyph_tram" d="M64 480c-19.2 0-32-12.8-32-32v-96c0-19.2 12.8-32 32-32s32 12.8 32 32v96c0 19.2-12.8 32-32 32zM960 480c-19.2 0-32-12.8-32-32v-96c0-19.2 12.8-32 32-32s32 12.8 32 32v96c0 19.2-12.8 32-32 32zM768 736h-147.2l41.6 128h73.6c19.2 0 32 12.8 32 32s-12.8 32-32 32h-448c-19.2 0-32-12.8-32-32s12.8-32 32-32h73.6l41.6-128h-147.2c-54.4 0-96-41.6-96-96v-640c0-19.2 12.8-32 32-32h640c19.2 0 32 12.8 32 32v640c0 54.4-41.6 96-96 96zM595.2 864l-41.6-128h-83.2l-41.6 128h166.4zM294.4 598.4c6.4 6.4 16 9.6 25.6 9.6h384c9.6 0 19.2-3.2 25.6-9.6s9.6-16 6.4-25.6l-32-224c-3.2-16-16-28.8-32-28.8h-320c-16 0-28.8 12.8-32 28.8l-32 224c0 6.4 3.2 16 6.4 25.6zM352 96c-35.2 0-64 28.8-64 64s28.8 64 64 64 64-28.8 64-64c0-35.2-28.8-64-64-64zM672 96c-35.2 0-64 28.8-64 64s28.8 64 64 64 64-28.8 64-64c0-35.2-28.8-64-64-64z" />
<glyph unicode="&#xe732;" glyph-name="transportation-glyph_truck-front" d="M64 576c0 19.2-12.8 32-32 32s-32-12.8-32-32v-96c0-19.2 12.8-32 32-32s32 12.8 32 32v96zM992 608c-19.2 0-32-12.8-32-32v-96c0-19.2 12.8-32 32-32s32 12.8 32 32v96c0 19.2-12.8 32-32 32zM160 960c-19.2 0-32-12.8-32-32v-32c0-19.2 12.8-32 32-32h704c19.2 0 32 12.8 32 32v32c0 19.2-12.8 32-32 32h-704zM896 380.8v387.2c0 19.2-12.8 32-32 32h-704c-19.2 0-32-12.8-32-32v-387.2l-57.6-83.2c-3.2-6.4-6.4-12.8-6.4-19.2v-182.4c0-19.2 12.8-32 32-32h32v-96c0-19.2 12.8-32 32-32h128c19.2 0 32 12.8 32 32v96h384v-96c0-19.2 12.8-32 32-32h128c19.2 0 32 12.8 32 32v96h32c19.2 0 32 12.8 32 32v182.4c0 6.4-3.2 12.8-6.4 19.2l-57.6 83.2zM256 160c-35.2 0-64 28.8-64 64s28.8 64 64 64 64-28.8 64-64c0-35.2-28.8-64-64-64zM544 192h-64c-19.2 0-32 12.8-32 32s12.8 32 32 32h64c19.2 0 32-12.8 32-32s-12.8-32-32-32zM256 416c-19.2 0-32 12.8-32 32v224c0 19.2 12.8 32 32 32h512c19.2 0 32-12.8 32-32v-224c0-19.2-12.8-32-32-32h-512zM768 160c-35.2 0-64 28.8-64 64s28.8 64 64 64 64-28.8 64-64c0-35.2-28.8-64-64-64z" />
<glyph unicode="&#xe733;" glyph-name="transportation-glyph_vespa-front" d="M768 768c19.2 0 32 12.8 32 32s-12.8 32-32 32h-99.2c-16 73.6-80 128-156.8 128s-140.8-54.4-156.8-128h-99.2c-19.2 0-32-12.8-32-32s12.8-32 32-32h99.2c3.2-16 9.6-32 16-44.8-86.4-32-147.2-115.2-147.2-211.2v-416c0-19.2 12.8-32 32-32h128c0-70.4 57.6-128 128-128s128 57.6 128 128h128c19.2 0 32 12.8 32 32v416c0 96-60.8 179.2-147.2 211.2 6.4 12.8 12.8 28.8 16 44.8h99.2zM576 64c0-35.2-28.8-64-64-64s-64 28.8-64 64v192c0 35.2 28.8 64 64 64s64-28.8 64-64v-192zM512 704c-54.4 0-96 41.6-96 96s41.6 96 96 96 96-41.6 96-96-41.6-96-96-96z" />
<glyph unicode="&#xe734;" glyph-name="transportation-glyph_vespa" d="M32 544h416c19.2 0 32 12.8 32 32v64c0 54.4-41.6 96-96 96h-288c-54.4 0-96-41.6-96-96v-64c0-19.2 12.8-32 32-32zM963.2 284.8l-147.2 323.2h112c19.2 0 32 12.8 32 32v160c0 19.2-12.8 32-32 32h-144c-32 0-60.8-12.8-80-35.2v67.2c0 19.2-12.8 32-32 32h-128c-19.2 0-32-12.8-32-32s12.8-32 32-32h96v-480h-160v96c0 19.2-12.8 32-32 32h-416c-19.2 0-32-12.8-32-32v-224c0-54.4 41.6-96 96-96h3.2c16-73.6 80-128 156.8-128s140.8 54.4 156.8 128h294.4c16-73.6 80-128 156.8-128 89.6 0 160 70.4 160 160 0 51.2-22.4 96-60.8 124.8zM256 64c-54.4 0-96 41.6-96 96s41.6 96 96 96 96-41.6 96-96-41.6-96-96-96zM864 64c-54.4 0-96 41.6-96 96s41.6 96 96 96 96-41.6 96-96-41.6-96-96-96z" />
<glyph unicode="&#xe7d5;" glyph-name="education-glyph_abc" d="M672 480v288c0 70.4-57.6 128-128 128h-96c-19.2 0-32-12.8-32-32s12.8-32 32-32h96c35.2 0 64-28.8 64-64h-128c-89.6 0-160-70.4-160-160s70.4-160 160-160h160c19.2 0 32 12.8 32 32zM608 512h-128c-54.4 0-96 41.6-96 96s41.6 96 96 96h128v-192zM240 352h-112v192c0 19.2-12.8 32-32 32s-32-12.8-32-32v-512c0-19.2 12.8-32 32-32h144c96 0 176 80 176 176s-80 176-176 176zM240 64h-112v224h112c60.8 0 112-51.2 112-112s-51.2-112-112-112zM832 288h96c19.2 0 32 12.8 32 32s-12.8 32-32 32h-96c-105.6 0-192-86.4-192-192s86.4-192 192-192h96c19.2 0 32 12.8 32 32s-12.8 32-32 32h-96c-70.4 0-128 57.6-128 128s57.6 128 128 128z" />
<glyph unicode="&#xe7d6;" glyph-name="education-glyph_agenda-bookmark" d="M832 960c-19.2 0-32-12.8-32-32v-960c0-19.2 12.8-32 32-32 54.4 0 96 41.6 96 96v832c0 54.4-41.6 96-96 96zM672-64c19.2 0 32 12.8 32 32v960c0 19.2-12.8 32-32 32h-96v-384c0-12.8-6.4-22.4-19.2-28.8-3.2-3.2-6.4-3.2-12.8-3.2s-12.8 3.2-19.2 6.4l-108.8 83.2-108.8-80c-9.6-6.4-22.4-9.6-32-3.2-12.8 3.2-19.2 12.8-19.2 25.6v384h-128c-19.2 0-32-12.8-32-32v-960c0-19.2 12.8-32 32-32h544z" />
<glyph unicode="&#xe7d7;" glyph-name="education-glyph_atom" d="M80 172.8c22.4-35.2 67.2-54.4 128-54.4 38.4 0 86.4 9.6 137.6 22.4 35.2-118.4 89.6-204.8 166.4-204.8s134.4 86.4 166.4 204.8c16-3.2 32-9.6 44.8-12.8 35.2-9.6 67.2-12.8 92.8-12.8 73.6 0 108.8 25.6 124.8 54.4 41.6 64 3.2 163.2-105.6 275.2 96 99.2 150.4 204.8 105.6 275.2-22.4 35.2-80 73.6-217.6 41.6-16-3.2-28.8-6.4-44.8-12.8-32 124.8-89.6 211.2-166.4 211.2-70.4 0-131.2-73.6-166.4-204.8-115.2 32-220.8 35.2-265.6-32-44.8-70.4 9.6-172.8 105.6-275.2-96-102.4-150.4-204.8-105.6-275.2zM739.2 704c76.8 16 134.4 12.8 150.4-12.8 25.6-41.6-32-150.4-172.8-265.6 0 9.6 0 16 0 25.6 0 83.2-9.6 166.4-25.6 243.2 19.2 3.2 32 6.4 48 9.6zM713.6 336c25.6 19.2 54.4 41.6 76.8 64 92.8-96 115.2-166.4 99.2-195.2-16-25.6-73.6-32-150.4-12.8-12.8 3.2-28.8 6.4-44.8 12.8 9.6 41.6 16 86.4 19.2 131.2zM512 0c-48 0-108.8 108.8-131.2 288 6.4-3.2 12.8-9.6 22.4-12.8 73.6-48 147.2-86.4 217.6-112-32-105.6-73.6-163.2-108.8-163.2zM656 448c0-32 0-60.8-3.2-89.6 0 0 0-3.2 0-3.2-3.2-48-9.6-92.8-16-131.2-64 25.6-131.2 60.8-198.4 102.4-64 38.4-115.2 80-156.8 121.6 44.8 38.4 96 80 156.8 121.6 67.2 41.6 134.4 76.8 198.4 102.4 9.6-64 19.2-137.6 19.2-224zM512 896c35.2 0 76.8-57.6 105.6-163.2-32-12.8-70.4-28.8-105.6-48-35.2 16-70.4 35.2-105.6 48 28.8 112 73.6 163.2 105.6 163.2zM134.4 688c25.6 38.4 147.2 32 307.2-41.6-12.8-9.6-28.8-16-41.6-25.6-60.8-38.4-118.4-83.2-169.6-131.2-83.2 92.8-115.2 169.6-96 198.4zM230.4 403.2c25.6-22.4 51.2-44.8 80-67.2 3.2-44.8 9.6-89.6 19.2-134.4-112-32-176-25.6-195.2 3.2-19.2 32 12.8 108.8 96 198.4zM608 448c0-53.019-42.981-96-96-96s-96 42.981-96 96c0 53.019 42.981 96 96 96s96-42.981 96-96z" />
<glyph unicode="&#xe7d8;" glyph-name="education-glyph_award-55" d="M857.6 947.2c0 3.2-3.2 3.2 0 0-3.2 3.2-6.4 6.4-6.4 6.4s-3.2 0-3.2 0-3.2 0-6.4 3.2c-3.2 0-6.4 0-6.4 3.2 0 0-3.2 0-3.2 0h-640c0 0-3.2 0-3.2 0-3.2 0-3.2 0-6.4-3.2-3.2 0-3.2 0-6.4-3.2 0 0-3.2 0-3.2 0s-3.2-3.2-3.2-3.2c0 0-3.2 0-3.2-3.2l-128-160c-9.6-12.8-9.6-25.6 0-38.4l217.6-300.8c-41.6-54.4-64-121.6-64-192 0-176 144-320 320-320s320 144 320 320c0 73.6-25.6 137.6-64 192l217.6 300.8c9.6 12.8 9.6 28.8 0 38.4l-128 160zM659.2 736l-112-163.2c-9.6 3.2-22.4 3.2-35.2 3.2s-25.6 0-35.2-3.2l-112 163.2h294.4zM105.6 768l86.4 108.8 217.6-316.8c-41.6-12.8-76.8-35.2-108.8-64l-195.2 272zM694.4 275.2l-67.2-67.2 16-92.8c3.2-12.8-3.2-25.6-12.8-32-6.4-3.2-12.8-6.4-19.2-6.4s-9.6 0-16 3.2l-83.2 48-83.2-44.8c-9.6-6.4-22.4-3.2-35.2 3.2-9.6 6.4-16 19.2-12.8 32l16 92.8-67.2 67.2c-9.6 9.6-12.8 22.4-6.4 32 3.2 12.8 12.8 19.2 25.6 22.4l92.8 12.8 41.6 83.2c6.4 9.6 16 19.2 28.8 19.2s22.4-6.4 28.8-19.2l41.6-86.4 92.8-12.8c12.8-3.2 22.4-9.6 25.6-22.4 6.4-9.6 3.2-22.4-6.4-32zM723.2 496c-32 28.8-67.2 48-108.8 60.8l217.6 316.8 86.4-105.6-195.2-272z" />
<glyph unicode="&#xe7d9;" glyph-name="education-glyph_backpack-57" d="M960 288v-352h32c19.2 0 32 12.8 32 32v192c0 51.2-25.6 99.2-64 128zM0 160v-192c0-19.2 12.8-32 32-32h32v352c-38.4-28.8-64-76.8-64-128zM704 256h32c19.2 0 32-12.8 32-32s-12.8-32-32-32h-32v-32c0-19.2-12.8-32-32-32s-32 12.8-32 32v32h-32c-19.2 0-32 12.8-32 32s12.8 32 32 32h32v128h-256v-128h32c19.2 0 32-12.8 32-32s-12.8-32-32-32h-32v-32c0-19.2-12.8-32-32-32s-32 12.8-32 32v32h-32c-19.2 0-32 12.8-32 32s12.8 32 32 32h32v128h-192v-416c0-19.2 12.8-32 32-32h704c19.2 0 32 12.8 32 32v416h-192v-128zM700.8 796.8c-12.8 92.8-92.8 163.2-188.8 163.2s-176-70.4-188.8-163.2c-108.8-12.8-195.2-108.8-195.2-220.8v-128h192v32c0 19.2 12.8 32 32 32s32-12.8 32-32v-32h256v32c0 19.2 12.8 32 32 32s32-12.8 32-32v-32h192v128c0 112-86.4 208-195.2 220.8zM387.2 800c12.8 54.4 64 96 124.8 96s108.8-41.6 124.8-96h-249.6z" />
<glyph unicode="&#xe7da;" glyph-name="education-glyph_backpack-58" d="M928 800h-224v128c0 19.2-12.8 32-32 32h-320c-19.2 0-32-12.8-32-32v-128h-224c-19.2 0-32-12.8-32-32v-448c0-54.4 41.6-96 96-96h128v128h-32c-19.2 0-32 12.8-32 32s12.8 32 32 32h128c19.2 0 32-12.8 32-32s-12.8-32-32-32h-32v-128h320v128h-32c-19.2 0-32 12.8-32 32s12.8 32 32 32h128c19.2 0 32-12.8 32-32s-12.8-32-32-32h-32v-128h128c54.4 0 96 41.6 96 96v448c0 19.2-12.8 32-32 32zM384 896h256v-96h-256v96zM672 544c0-19.2-12.8-32-32-32h-256c-19.2 0-32 12.8-32 32v96c0 19.2 12.8 32 32 32h256c19.2 0 32-12.8 32-32v-96zM736 96c0-19.2-12.8-32-32-32s-32 12.8-32 32v64h-320v-64c0-19.2-12.8-32-32-32s-32 12.8-32 32v64h-160v-192c0-19.2 12.8-32 32-32h704c19.2 0 32 12.8 32 32v192h-160v-64z" />
<glyph unicode="&#xe7db;" glyph-name="education-glyph_ball-basket" d="M512 960c-281.6 0-512-230.4-512-512s230.4-512 512-512 512 230.4 512 512-230.4 512-512 512zM960 448c0-9.6 0-22.4-3.2-32h-195.2c6.4-89.6 41.6-176 96-246.4-12.8-16-28.8-32-44.8-48-70.4 83.2-112 185.6-118.4 294.4h-150.4v-412.8c-9.6 0-22.4-3.2-32-3.2s-22.4 0-32 3.2v412.8h-156.8c-6.4-108.8-48-211.2-118.4-294.4-16 16-32 28.8-44.8 48 57.6 70.4 89.6 156.8 96 246.4h-188.8c-3.2 9.6-3.2 22.4-3.2 32s0 22.4 3.2 32h195.2c-6.4 89.6-41.6 176-96 246.4 12.8 16 28.8 32 44.8 48 70.4-83.2 112-185.6 118.4-294.4h150.4v412.8c9.6 3.2 22.4 3.2 32 3.2s22.4 0 32-3.2v-412.8h156.8c6.4 108.8 48 211.2 118.4 294.4 16-16 32-28.8 44.8-48-57.6-70.4-89.6-156.8-96-246.4h195.2c-3.2-9.6-3.2-22.4-3.2-32z" />
<glyph unicode="&#xe7dc;" glyph-name="education-glyph_ball-soccer" d="M512 960c-281.6 0-512-230.4-512-512s230.4-512 512-512 512 230.4 512 512-230.4 512-512 512zM899.2 224h-195.2c-12.8 0-25.6-9.6-28.8-22.4l-64-192c-32-6.4-64-9.6-96-9.6s-67.2 3.2-96 9.6l-64 192c-9.6 12.8-22.4 22.4-35.2 22.4h-195.2c-32 54.4-51.2 115.2-57.6 179.2l163.2 115.2c12.8 9.6 16 22.4 12.8 35.2l-64 188.8c41.6 48 96 86.4 156.8 115.2l160-118.4c3.2-3.2 9.6-6.4 16-6.4s12.8 3.2 19.2 6.4l160 118.4c60.8-25.6 112-64 156.8-115.2l-64-188.8c-3.2-12.8 0-28.8 12.8-35.2l163.2-115.2c-9.6-64-28.8-124.8-60.8-179.2zM531.2 649.6c-12.8 9.6-25.6 9.6-38.4 0l-176-131.2c-12.8-9.6-16-25.6-9.6-38.4l80-172.8c6.4-12.8 16-19.2 28.8-19.2h192c12.8 0 22.4 6.4 28.8 19.2l80 172.8c6.4 12.8 3.2 28.8-9.6 38.4l-176 131.2z" />
<glyph unicode="&#xe7dd;" glyph-name="education-glyph_board-51" d="M1014.4 905.6c12.8 12.8 12.8 32 0 44.8s-32 12.8-44.8 0l-86.4-86.4h-275.2v64c0 19.2-12.8 32-32 32h-128c-19.2 0-32-12.8-32-32v-64h-288c-19.2 0-32-12.8-32-32v-544h-64c-19.2 0-32-12.8-32-32v-64c0-19.2 12.8-32 32-32h313.6l-147.2-169.6c-12.8-12.8-9.6-32 3.2-44.8 6.4-6.4 16-9.6 22.4-9.6 9.6 0 19.2 3.2 25.6 9.6l182.4 214.4h48v-160c0-19.2 12.8-32 32-32s32 12.8 32 32v160h48l182.4-214.4c6.4-6.4 16-9.6 25.6-9.6 6.4 0 16 3.2 22.4 6.4 12.8 12.8 16 32 3.2 44.8l-147.2 172.8h313.6c19.2 0 32 12.8 32 32v64c0 19.2-12.8 32-32 32h-64v531.2l86.4 86.4zM864 288h-704v512h659.2l-137.6-137.6c-12.8-12.8-12.8-32 0-44.8 6.4-6.4 16-9.6 22.4-9.6s16 3.2 22.4 9.6l137.6 137.6v-467.2zM320 608h256c19.2 0 32 12.8 32 32s-12.8 32-32 32h-256c-19.2 0-32-12.8-32-32s12.8-32 32-32zM320 512c-19.2 0-32-12.8-32-32s12.8-32 32-32h384c19.2 0 32 12.8 32 32s-12.8 32-32 32h-384z" />
<glyph unicode="&#xe7de;" glyph-name="education-glyph_book-39" d="M224-64h672c19.2 0 32 12.8 32 32v960c0 19.2-12.8 32-32 32h-704c-54.4 0-96-41.6-96-96v-800c0-70.4 57.6-128 128-128zM416 704c0 19.2 12.8 32 32 32h288c19.2 0 32-12.8 32-32v-192c0-19.2-12.8-32-32-32h-288c-19.2 0-32 12.8-32 32v192zM224 800c0 19.2 12.8 32 32 32s32-12.8 32-32v-608h-64v608zM224 128h640v-128h-640c-35.2 0-64 28.8-64 64s28.8 64 64 64z" />
<glyph unicode="&#xe7df;" glyph-name="education-glyph_book-bookmark" d="M224-64h672c19.2 0 32 12.8 32 32v960c0 19.2-12.8 32-32 32h-160v-288c0-12.8-6.4-22.4-16-28.8-6.4-3.2-9.6-3.2-16-3.2s-12.8 3.2-19.2 6.4l-76.8 51.2-76.8-51.2c-9.6-6.4-22.4-6.4-32 0-12.8 3.2-19.2 12.8-19.2 25.6v288h-288c-54.4 0-96-41.6-96-96v-800c0-70.4 57.6-128 128-128zM224 800c0 19.2 12.8 32 32 32s32-12.8 32-32v-608h-64v608zM224 128h640v-128h-640c-35.2 0-64 28.8-64 64s28.8 64 64 64z" />
<glyph unicode="&#xe7e0;" glyph-name="education-glyph_book-open" d="M1011.2 921.6c-9.6 6.4-19.2 6.4-28.8 3.2l-470.4-153.6-470.4 153.6c-9.6 3.2-19.2 3.2-28.8-3.2-6.4-6.4-12.8-16-12.8-25.6v-736c0-12.8 9.6-25.6 22.4-28.8l480-160c3.2 0 6.4-3.2 9.6-3.2s6.4 0 9.6 3.2l480 160c12.8 3.2 22.4 16 22.4 28.8v736c0 9.6-6.4 19.2-12.8 25.6zM444.8 192c-3.2-12.8-16-22.4-28.8-22.4-3.2 0-6.4 0-9.6 3.2l-256 86.4c-16 6.4-25.6 22.4-19.2 41.6 6.4 16 22.4 25.6 41.6 19.2l256-86.4c12.8-6.4 22.4-25.6 16-41.6zM444.8 396.8c-3.2-12.8-16-22.4-28.8-22.4-3.2 0-6.4 0-9.6 3.2l-256 86.4c-16 6.4-25.6 22.4-19.2 41.6 6.4 16 22.4 25.6 41.6 19.2l256-86.4c12.8-9.6 22.4-25.6 16-41.6zM444.8 576c-3.2-12.8-16-22.4-28.8-22.4-3.2 0-6.4 0-9.6 3.2l-256 86.4c-16 3.2-25.6 22.4-19.2 38.4s22.4 25.6 41.6 19.2l256-86.4c12.8-3.2 22.4-22.4 16-38.4zM873.6 259.2l-256-86.4c-3.2 0-6.4-3.2-9.6-3.2-12.8 0-25.6 9.6-28.8 22.4-6.4 16 3.2 35.2 19.2 41.6l256 86.4c16 6.4 35.2-3.2 41.6-19.2 3.2-19.2-6.4-38.4-22.4-41.6zM873.6 460.8l-256-86.4c-3.2 0-6.4-3.2-9.6-3.2-12.8 0-25.6 9.6-28.8 22.4-6.4 16 3.2 35.2 19.2 41.6l256 86.4c16 6.4 35.2-3.2 41.6-19.2 3.2-19.2-6.4-35.2-22.4-41.6zM873.6 643.2l-256-86.4c-3.2 0-6.4-3.2-9.6-3.2-12.8 0-25.6 9.6-28.8 22.4-6.4 16 3.2 35.2 19.2 41.6l256 86.4c16 6.4 35.2-3.2 41.6-19.2 3.2-19.2-6.4-38.4-22.4-41.6z" />
<glyph unicode="&#xe7e1;" glyph-name="education-glyph_books-46" d="M32 640h576v256h-576c-19.2 0-32-12.8-32-32v-192c0-19.2 12.8-32 32-32zM160 800h160c19.2 0 32-12.8 32-32s-12.8-32-32-32h-160c-19.2 0-32 12.8-32 32s12.8 32 32 32zM864 672v192c0 19.2-12.8 32-32 32h-160v-256h160c19.2 0 32 12.8 32 32zM768 576h-576c-19.2 0-32-12.8-32-32v-192c0-19.2 12.8-32 32-32h576v256zM480 416h-160c-19.2 0-32 12.8-32 32s12.8 32 32 32h160c19.2 0 32-12.8 32-32s-12.8-32-32-32zM992 576h-160v-256h160c19.2 0 32 12.8 32 32v192c0 19.2-12.8 32-32 32zM32 0h576v256h-576c-19.2 0-32-12.8-32-32v-192c0-19.2 12.8-32 32-32zM160 160h160c19.2 0 32-12.8 32-32s-12.8-32-32-32h-160c-19.2 0-32 12.8-32 32s12.8 32 32 32zM864 32v192c0 19.2-12.8 32-32 32h-160v-256h160c19.2 0 32 12.8 32 32z" />
<glyph unicode="&#xe7e2;" glyph-name="education-glyph_chalkboard" d="M992 768h-275.2l-140.8 118.4c0 3.2 0 6.4 0 9.6 0 35.2-28.8 64-64 64s-64-28.8-64-64c0-3.2 0-6.4 0-9.6l-140.8-118.4h-275.2c-19.2 0-32-12.8-32-32v-768c0-19.2 12.8-32 32-32h960c19.2 0 32 12.8 32 32v768c0 19.2-12.8 32-32 32zM489.6 835.2c6.4-3.2 16-3.2 22.4-3.2s16 0 22.4 3.2l80-67.2h-208l83.2 67.2zM864 96h-64v64c0 19.2-12.8 32-32 32h-224c-19.2 0-32-12.8-32-32v-64h-352v512h704v-512z" />
<glyph unicode="&#xe7e3;" glyph-name="education-glyph_flask" d="M288 768h64v-64h320v64h64c19.2 0 32 12.8 32 32v128c0 19.2-12.8 32-32 32h-448c-19.2 0-32-12.8-32-32v-128c0-19.2 12.8-32 32-32zM416 128h-64v-32c0-89.6 70.4-160 160-160s160 70.4 160 160v544h-320v-128h64c19.2 0 32-12.8 32-32s-12.8-32-32-32h-64v-96h64c19.2 0 32-12.8 32-32s-12.8-32-32-32h-64v-96h64c19.2 0 32-12.8 32-32s-12.8-32-32-32z" />
<glyph unicode="&#xe7e4;" glyph-name="education-glyph_glasses" d="M1004.8 348.8l-192 457.6c-12.8 35.2-48 57.6-86.4 57.6h-86.4c-19.2 0-32-12.8-32-32s12.8-32 32-32h86.4c12.8 0 25.6-6.4 28.8-19.2l131.2-316.8c-25.6 9.6-54.4 16-86.4 16-80 0-153.6-44.8-192-108.8-22.4 25.6-57.6 44.8-96 44.8s-73.6-16-96-44.8c-38.4 64-108.8 108.8-192 108.8-32 0-60.8-6.4-86.4-19.2l131.2 316.8c6.4 16 16 22.4 28.8 22.4h86.4c19.2 0 32 12.8 32 32s-12.8 32-32 32h-86.4c-38.4 0-73.6-22.4-86.4-57.6l-192-457.6c0 0 0 0 0 0-12.8-28.8-19.2-60.8-19.2-92.8 0-124.8 99.2-224 224-224s224 99.2 224 224c0 9.6 0 16 0 25.6 0 3.2 0 3.2 0 6.4 0 35.2 28.8 64 64 64s64-28.8 64-64c0-3.2 0-6.4 0-6.4 0-9.6 0-16 0-25.6 0-124.8 99.2-224 224-224s224 99.2 224 224c0 32-6.4 64-19.2 92.8 0 0 0 0 0 0z" />
<glyph unicode="&#xe7e5;" glyph-name="education-glyph_grammar-check" d="M704 256c-140.8 0-256 115.2-256 256s115.2 256 256 256c48 0 89.6-12.8 128-35.2v195.2c0 19.2-12.8 32-32 32h-768c-19.2 0-32-12.8-32-32v-960c0-19.2 12.8-32 32-32h768c19.2 0 32 12.8 32 32v281.6l-28.8 28.8c-32-16-64-22.4-99.2-22.4zM192 704h192c19.2 0 32-12.8 32-32s-12.8-32-32-32h-192c-19.2 0-32 12.8-32 32s12.8 32 32 32zM192 480h192c19.2 0 32-12.8 32-32s-12.8-32-32-32h-192c-19.2 0-32 12.8-32 32s12.8 32 32 32zM512 192h-320c-19.2 0-32 12.8-32 32s12.8 32 32 32h320c19.2 0 32-12.8 32-32s-12.8-32-32-32zM860.8 400c22.4 32 35.2 70.4 35.2 112 0 105.6-86.4 192-192 192s-192-86.4-192-192 86.4-192 192-192c41.6 0 80 12.8 112 35.2l153.6-153.6c6.4-6.4 16-9.6 22.4-9.6s16 3.2 22.4 9.6c12.8 12.8 12.8 32 0 44.8l-153.6 153.6z" />
<glyph unicode="&#xe7e6;" glyph-name="education-glyph_hat" d="M556.8 364.8c-12.8-9.6-28.8-12.8-44.8-12.8s-32 3.2-44.8 12.8l-275.2 147.2v-192c0-92.8 137.6-160 320-160 57.6 0 112 6.4 160 19.2v246.4l-115.2-60.8zM832 320v192l-96-51.2v-256c60.8 28.8 96 67.2 96 115.2zM944 700.8l-416 224c-9.6 6.4-22.4 6.4-28.8 0l-416-224c-12.8-6.4-19.2-16-19.2-28.8s6.4-22.4 16-28.8l416-224c6.4-3.2 9.6-3.2 16-3.2s9.6 0 16 3.2l144 76.8v35.2l-128 80c-9.6-3.2-19.2-3.2-32-3.2-54.4 0-96 25.6-96 64s41.6 64 96 64 96-25.6 96-64c0-6.4-3.2-12.8-6.4-19.2l118.4-73.6c9.6-6.4 16-16 16-25.6v-19.2l208 112c9.6 3.2 16 12.8 16 25.6s-6.4 22.4-16 28.8zM614.4 19.2c-6.4-9.6-6.4-22.4 0-32s16-16 28.8-16h128c12.8 0 22.4 6.4 28.8 16s6.4 22.4 0 32l-64 86.4v99.2c-19.2-9.6-41.6-16-64-22.4v-73.6l-57.6-89.6z" />
<glyph unicode="&#xe7e7;" glyph-name="education-glyph_language" d="M326.4 480c3.2 22.4-3.2 41.6-16 57.6l-118.4 115.2v211.2c0 19.2-12.8 32-32 32s-32-12.8-32-32v-224c0-9.6 3.2-16 9.6-22.4l124.8-124.8-115.2-44.8c-12.8-6.4-19.2-19.2-19.2-32v-44.8l-60.8-28.8c-32-16-54.4-48-54.4-86.4s19.2-70.4 54.4-86.4l60.8-28.8v-44.8c0-19.2-12.8-32-32-32h-64c-19.2 0-32-12.8-32-32s12.8-32 32-32h64c54.4 0 96 41.6 96 96v64c0 12.8-6.4 22.4-19.2 28.8l-76.8 38.4c-9.6 6.4-19.2 16-19.2 28.8s6.4 22.4 19.2 28.8l76.8 38.4c12.8 6.4 19.2 16 19.2 28.8v41.6l96 38.4c19.2 9.6 32 25.6 38.4 48zM896 800h-352c-70.4 0-128-57.6-128-128v-275.2l-121.6-150.4c-6.4-9.6-9.6-22.4-3.2-35.2s16-19.2 28.8-19.2h576c70.4 0 128 57.6 128 128v352c0 70.4-57.6 128-128 128zM832 384h-224c-19.2 0-32 12.8-32 32s12.8 32 32 32h224c19.2 0 32-12.8 32-32s-12.8-32-32-32zM832 544h-224c-19.2 0-32 12.8-32 32s12.8 32 32 32h224c19.2 0 32-12.8 32-32s-12.8-32-32-32z" />
<glyph unicode="&#xe7e8;" glyph-name="education-glyph_microscope" d="M896 96h-544c0 112-83.2 204.8-192 220.8v99.2c0 124.8 70.4 201.6 140.8 246.4l118.4-284.8c6.4-12.8 16-19.2 28.8-19.2 3.2 0 9.6 0 12.8 3.2l163.2 67.2c6.4 3.2 12.8 9.6 16 16s3.2 16 0 25.6l-182.4 448c-6.4 16-25.6 25.6-41.6 16l-163.2-70.4c-6.4-3.2-12.8-9.6-16-16s-3.2-16 0-25.6l41.6-102.4c-118.4-70.4-182.4-176-182.4-304v-448c0-19.2 12.8-32 32-32h768c19.2 0 32 12.8 32 32v96c0 19.2-12.8 32-32 32zM480 256c-19.2 0-32-12.8-32-32s12.8-32 32-32h320c19.2 0 32 12.8 32 32s-12.8 32-32 32h-320z" />
<glyph unicode="&#xe7e9;" glyph-name="education-glyph_molecule" d="M160 256c-89.6 0-160-70.4-160-160s70.4-160 160-160 160 70.4 160 160c0 41.6-16 80-41.6 108.8l73.6 99.2c19.2-9.6 41.6-16 67.2-16 76.8 0 140.8 54.4 156.8 128h134.4c16-73.6 80-128 156.8-128 89.6 0 160 70.4 160 160s-70.4 160-160 160c-76.8 0-140.8-54.4-156.8-128h-134.4c-16 73.6-80 128-156.8 128-22.4 0-44.8-6.4-67.2-16l-73.6 99.2c25.6 28.8 41.6 67.2 41.6 108.8 0 89.6-70.4 160-160 160s-160-70.4-160-160 70.4-160 160-160c22.4 0 44.8 6.4 67.2 16l73.6-99.2c-28.8-28.8-44.8-67.2-44.8-108.8s16-80 41.6-108.8l-73.6-99.2c-19.2 9.6-41.6 16-64 16z" />
<glyph unicode="&#xe7ea;" glyph-name="education-glyph_notepad" d="M640 576h-256c-19.2 0-32-12.8-32-32s12.8-32 32-32h256c19.2 0 32 12.8 32 32s-12.8 32-32 32zM672 416c0 19.2-12.8 32-32 32h-256c-19.2 0-32-12.8-32-32s12.8-32 32-32h256c19.2 0 32 12.8 32 32zM384 320c-19.2 0-32-12.8-32-32s12.8-32 32-32h160c19.2 0 32 12.8 32 32s-12.8 32-32 32h-160zM128-64h768c19.2 0 32 12.8 32 32v960c0 19.2-12.8 32-32 32h-128v-128c19.2 0 32-12.8 32-32v-704c0-19.2-12.8-32-32-32h-512c-19.2 0-32 12.8-32 32v704c0 19.2 12.8 32 32 32v128h-128c-19.2 0-32-12.8-32-32v-960c0-19.2 12.8-32 32-32zM352 736h67.2c12.8 0 25.6 6.4 32 19.2 9.6 25.6 32 44.8 60.8 44.8s51.2-19.2 60.8-44.8c3.2-12.8 16-19.2 32-19.2h67.2c19.2 0 32 12.8 32 32v160c0 19.2-12.8 32-32 32h-320c-19.2 0-32-12.8-32-32v-160c0-19.2 12.8-32 32-32z" />
<glyph unicode="&#xe7eb;" glyph-name="education-glyph_paper-diploma" d="M992 160h-128v102.4c-6.4 3.2-16 6.4-22.4 9.6l-41.6 28.8-41.6-28.8c-16-9.6-35.2-16-54.4-16-16 0-32 3.2-44.8 12.8-32 16-51.2 48-51.2 83.2v118.4c-41.6 48-64 105.6-64 169.6 0 140.8 115.2 256 256 256 16 0 32-3.2 48-3.2-19.2 38.4-64 67.2-112 67.2h-608c-70.4 0-128-57.6-128-128v-64c0-19.2 12.8-32 32-32h160v-672c0-70.4 57.6-128 128-128h576c70.4 0 128 57.6 128 128v64c0 19.2-12.8 32-32 32zM192 800h-128v32c0 35.2 28.8 64 64 64s64-28.8 64-64v-32zM384 704h64c19.2 0 32-12.8 32-32s-12.8-32-32-32h-64c-19.2 0-32 12.8-32 32s12.8 32 32 32zM384 544h96c19.2 0 32-12.8 32-32s-12.8-32-32-32h-96c-19.2 0-32 12.8-32 32s12.8 32 32 32zM352 352c0 19.2 12.8 32 32 32h128c19.2 0 32-12.8 32-32s-12.8-32-32-32h-128c-19.2 0-32 12.8-32 32zM960 64c0-35.2-28.8-64-64-64h-464c9.6 19.2 16 41.6 16 64v32h512v-32zM608 640c0-57.6 25.6-108.8 64-144v-144c0-12.8 6.4-22.4 16-28.8s22.4-6.4 32 0l76.8 51.2 76.8-51.2c6.4-3.2 12.8-6.4 19.2-6.4s9.6 0 16 3.2c9.6 6.4 16 16 16 28.8v144c38.4 35.2 64 86.4 64 144 0 105.6-86.4 192-192 192s-188.8-83.2-188.8-188.8z" />
<glyph unicode="&#xe7ec;" glyph-name="education-glyph_paper" d="M992 160h-128v672c0 70.4-57.6 128-128 128h-608c-70.4 0-128-57.6-128-128v-64c0-19.2 12.8-32 32-32h160v-672c0-70.4 57.6-128 128-128h576c70.4 0 128 57.6 128 128v64c0 19.2-12.8 32-32 32zM192 800h-128v32c0 35.2 28.8 64 64 64s64-28.8 64-64v-32zM384 704h288c19.2 0 32-12.8 32-32s-12.8-32-32-32h-288c-19.2 0-32 12.8-32 32s12.8 32 32 32zM384 544h288c19.2 0 32-12.8 32-32s-12.8-32-32-32h-288c-19.2 0-32 12.8-32 32s12.8 32 32 32zM352 352c0 19.2 12.8 32 32 32h288c19.2 0 32-12.8 32-32s-12.8-32-32-32h-288c-19.2 0-32 12.8-32 32zM960 64c0-35.2-28.8-64-64-64h-464c9.6 19.2 16 41.6 16 64v32h512v-32z" />
<glyph unicode="&#xe7ed;" glyph-name="education-glyph_pencil-47" d="M192 960c-19.2 0-32-12.8-32-32v-576c0 0 0-3.2 0-3.2 0-3.2 0-3.2 0-6.4s3.2-3.2 3.2-6.4c0 0 0-3.2 3.2-3.2 0 0 0 0 0 0s0 0 0 0l320-352c6.4-6.4 16-9.6 22.4-9.6s19.2 3.2 22.4 9.6l320 352c0 0 0 0 0 0s0 0 0 0 0 3.2 3.2 3.2c0 3.2 3.2 3.2 3.2 6.4s0 3.2 0 6.4c0 0 0 3.2 0 3.2v576c0 19.2-12.8 32-32 32h-128v-352c0-19.2-12.8-32-32-32s-32 12.8-32 32v352h-256v-352c0-19.2-12.8-32-32-32s-32 12.8-32 32v352h-121.6zM352 438.4l140.8-112c12.8-9.6 28.8-9.6 38.4 0l140.8 112 112-89.6-169.6-188.8h-204.8l-169.6 188.8 112 89.6z" />
<glyph unicode="&#xe7ee;" glyph-name="education-glyph_school" d="M960 352h-192v160c0 9.6-6.4 19.2-12.8 25.6l-211.2 150.4v80h128c19.2 0 32 12.8 32 32v128c0 19.2-12.8 32-32 32h-160c-19.2 0-32-12.8-32-32v-240l-211.2-150.4c-6.4-6.4-12.8-16-12.8-25.6v-160h-192c-19.2 0-32-12.8-32-32v-352c0-19.2 12.8-32 32-32h352v224c0 19.2 12.8 32 32 32h128c19.2 0 32-12.8 32-32v-224h352c19.2 0 32 12.8 32 32v352c0 19.2-12.8 32-32 32zM544 896h96v-64h-96v64zM288 128c0-19.2-12.8-32-32-32h-64c-19.2 0-32 12.8-32 32v32c0 19.2 12.8 32 32 32h64c19.2 0 32-12.8 32-32v-32zM576 384c0-19.2-12.8-32-32-32h-64c-19.2 0-32 12.8-32 32v32c0 19.2 12.8 32 32 32h64c19.2 0 32-12.8 32-32v-32zM864 128c0-19.2-12.8-32-32-32h-64c-19.2 0-32 12.8-32 32v32c0 19.2 12.8 32 32 32h64c19.2 0 32-12.8 32-32v-32z" />
<glyph unicode="&#xe7ef;" glyph-name="objects-glyph_alien-29" d="M512 960c-281.6 0-512-192-512-425.6s310.4-598.4 512-598.4c195.2 0 512 371.2 512 598.4 0 230.4-233.6 425.6-512 425.6zM454.4 310.4c-3.2-16-16-25.6-32-25.6 0 0-3.2 0-3.2 0-3.2 0-105.6 12.8-169.6 76.8-76.8 76.8-76.8 211.2-76.8 214.4 0 16 12.8 32 32 32h6.4c22.4 0 134.4-3.2 211.2-80 67.2-64 38.4-201.6 32-217.6zM771.2 361.6c-64-64-163.2-76.8-169.6-76.8 0 0-3.2 0-3.2 0-16 0-28.8 9.6-32 25.6s-32 153.6 35.2 220.8c76.8 76.8 188.8 80 211.2 80h6.4c16 0 32-16 32-32-3.2-6.4-3.2-140.8-80-217.6z" />
<glyph unicode="&#xe7f0;" glyph-name="objects-glyph_alien-33" d="M512 96c-19.2 0-32-12.8-32-32v-96c0-19.2 12.8-32 32-32s32 12.8 32 32v96c0 19.2-12.8 32-32 32zM697.6 115.2c-9.6 16-28.8 19.2-44.8 9.6s-19.2-28.8-9.6-44.8l64-96c6.4-9.6 16-12.8 25.6-12.8 6.4 0 12.8 3.2 19.2 6.4 16 9.6 19.2 28.8 9.6 44.8l-64 92.8zM326.4 115.2l-64-96c-9.6-16-6.4-35.2 9.6-44.8 3.2-3.2 9.6-6.4 16-6.4 9.6 0 19.2 6.4 25.6 12.8l64 96c9.6 16 6.4 35.2-9.6 44.8-12.8 9.6-32 6.4-41.6-6.4zM166.4 416h691.2c-28.8 153.6-156.8 272-313.6 284.8v73.6c38.4 12.8 64 48 64 89.6 0 54.4-41.6 96-96 96s-96-41.6-96-96c0-41.6 25.6-76.8 64-89.6v-70.4c-156.8-16-284.8-134.4-313.6-288zM864 352h-704c-89.6 0-160-70.4-160-160 0-19.2 12.8-32 32-32h960c0 0 0 0 0 0 19.2 0 32 12.8 32 32 0 3.2 0 6.4 0 6.4-3.2 86.4-73.6 153.6-160 153.6z" />
<glyph unicode="&#xe7f1;" glyph-name="objects-glyph_anchor" d="M128-32c19.2 0 32 12.8 32 32v89.6c89.6-96 217.6-153.6 352-153.6 137.6 0 262.4 57.6 352 153.6v-89.6c0-19.2 12.8-32 32-32s32 12.8 32 32v192c0 19.2-12.8 32-32 32h-192c-19.2 0-32-12.8-32-32s12.8-32 32-32h134.4c-70.4-92.8-179.2-150.4-294.4-156.8v572.8h96c19.2 0 32 12.8 32 32s-12.8 32-32 32h-96v67.2c54.4 12.8 96 64 96 124.8 0 70.4-57.6 128-128 128s-128-57.6-128-128c0-60.8 41.6-108.8 96-124.8v-67.2h-96c-19.2 0-32-12.8-32-32s12.8-32 32-32h96v-572.8c-118.4 9.6-224 64-294.4 156.8h134.4c19.2 0 32 12.8 32 32s-12.8 32-32 32h-192c-19.2 0-32-12.8-32-32v-9.6c0 0 0 0 0 0v-182.4c0-19.2 12.8-32 32-32z" />
<glyph unicode="&#xe7f2;" glyph-name="objects-glyph_astronaut" d="M544 864v64c0 19.2-12.8 32-32 32s-32-12.8-32-32v-64c-345.6-19.2-384-358.4-384-505.6 0-224 208-326.4 416-326.4s416 102.4 416 326.4c0 147.2-38.4 486.4-384 505.6zM518.4 233.6c0 0-3.2 0 0 0h-6.4c0 0 0 0 0 0-60.8 0-115.2 6.4-160 22.4-112 35.2-137.6 108.8-137.6 163.2 0 211.2 150.4 323.2 297.6 323.2 144 0 297.6-112 297.6-323.2 0-115.2-108.8-185.6-291.2-185.6zM444.8 627.2c-48-9.6-92.8-57.6-108.8-112-3.2-16 6.4-35.2 22.4-38.4 3.2 0 6.4 0 9.6 0 12.8 0 25.6 9.6 32 22.4 9.6 35.2 38.4 60.8 60.8 67.2 16 3.2 28.8 22.4 25.6 38.4-6.4 16-22.4 25.6-41.6 22.4zM192 96v-60.8c0-12.8 6.4-22.4 16-28.8 83.2-44.8 188.8-70.4 304-70.4s220.8 25.6 304 73.6c9.6 6.4 16 16 16 28.8v57.6c-86.4-64-201.6-96-320-96s-233.6 32-320 96z" />
<glyph unicode="&#xe7f3;" glyph-name="objects-glyph_axe" d="M163.2 406.4l185.6-185.6c6.4-6.4 12.8-9.6 22.4-9.6 6.4 0 12.8 0 16 6.4l54.4 35.2 278.4-278.4c22.4-22.4 54.4-35.2 86.4-35.2s60.8 12.8 86.4 35.2 35.2 54.4 35.2 86.4c0 32-12.8 60.8-35.2 86.4l-240 240 233.6 147.2c9.6 6.4 12.8 12.8 16 22.4 0 6.4 12.8 128-134.4 275.2-121.6 115.2-224 128-262.4 128-9.6 0-12.8 0-12.8 0-9.6 0-19.2-6.4-22.4-16l-147.2-233.6-22.4 22.4c-48 48-121.6 48-169.6 0-22.4-22.4-35.2-54.4-35.2-86.4s12.8-60.8 35.2-86.4l60.8-57.6-35.2-54.4c-6.4-12.8-6.4-32 6.4-41.6zM515.2 896c32-3.2 112-19.2 208-115.2 96-99.2 112-179.2 115.2-208l-54.4-35.2c-9.6 48-35.2 121.6-108.8 195.2s-147.2 99.2-195.2 108.8l35.2 54.4zM441.6 780.8c32 0 108.8-12.8 188.8-92.8s92.8-156.8 92.8-188.8l-131.2-83.2c-3.2 0-9.6-3.2-12.8-6.4 0 0 0 0 0 0l-140.8-89.6c-3.2 0-9.6-3.2-12.8-6.4 0 0 0 0 0 0l-48-28.8-153.6 150.4 217.6 345.6z" />
<glyph unicode="&#xe7f4;" glyph-name="objects-glyph_baby-bottle" d="M147.2 352l-70.4-70.4c-51.2-51.2-51.2-131.2 0-182.4l89.6-89.6c25.6-25.6 57.6-38.4 89.6-38.4s67.2 12.8 89.6 38.4l409.6 409.6-268.8 268.8-102.4-99.2 86.4-86.4-44.8-44.8-86.4 86.4-51.2-51.2 86.4-86.4-44.8-44.8-86.4 86.4-51.2-51.2 86.4-86.4-44.8-44.8-86.4 86.4zM966.4 902.4c-38.4 38.4-102.4 38.4-140.8 0l-121.6-121.6-105.6 105.6c-12.8 12.8-32 12.8-44.8 0l-64-64c-12.8-12.8-12.8-32 0-44.8l352-352c6.4-6.4 16-9.6 22.4-9.6s16 3.2 22.4 9.6l64 64c12.8 12.8 12.8 32 0 44.8l-105.6 105.6 121.6 121.6c38.4 38.4 38.4 102.4 0 140.8z" />
<glyph unicode="&#xe7f5;" glyph-name="objects-glyph_baby" d="M864 512c0 19.2-12.8 32-32 32h-224v128c38.4 28.8 64 76.8 64 128 0 89.6-70.4 160-160 160s-160-70.4-160-160c0-51.2 25.6-96 64-128v-128h-224c-19.2 0-32-12.8-32-32v-96c0-19.2 12.8-32 32-32h150.4c-51.2-48-86.4-115.2-86.4-192 0-140.8 115.2-256 256-256s256 115.2 256 256c0 76.8-35.2 144-86.4 192h150.4c19.2 0 32 12.8 32 32v96zM704 192c0-105.6-86.4-192-192-192s-192 86.4-192 192 86.4 192 192 192 192-86.4 192-192z" />
<glyph unicode="&#xe7f6;" glyph-name="objects-glyph_baloon" d="M451.2 230.4l-60.8-83.2c-6.4-9.6-9.6-22.4-3.2-32s16-19.2 28.8-19.2h64v-128c0-19.2 12.8-32 32-32s32 12.8 32 32v128h64c0 0 0 0 0 0 19.2 0 32 12.8 32 32 0 9.6-3.2 19.2-9.6 22.4l-57.6 76.8c147.2 28.8 259.2 156.8 259.2 313.6v96c0 176-144 320-320 320s-320-140.8-320-316.8v-96c0-156.8 112-284.8 259.2-313.6zM512 832c19.2 0 32-12.8 32-32s-12.8-32-32-32c-70.4 0-128-57.6-128-128 0-19.2-12.8-32-32-32s-32 12.8-32 32c0 105.6 86.4 192 192 192z" />
<glyph unicode="&#xe7f7;" glyph-name="objects-glyph_battery" d="M160 160h704v480h-704v-480zM422.4 435.2l96 128c9.6 12.8 32 16 44.8 6.4s16-32 6.4-44.8l-57.6-76.8h64c12.8 0 22.4-6.4 28.8-19.2s3.2-22.4-3.2-32l-96-128c-6.4-9.6-16-12.8-25.6-12.8-6.4 0-12.8 3.2-19.2 6.4-12.8 9.6-16 32-6.4 44.8l57.6 76.8h-64c-12.8 0-22.4 6.4-28.8 19.2s-3.2 22.4 3.2 32zM160 0c0-19.2 12.8-32 32-32h640c19.2 0 32 12.8 32 32v96h-704v-96zM832 832h-64v64c0 19.2-12.8 32-32 32h-96c-19.2 0-32-12.8-32-32v-64h-192v64c0 19.2-12.8 32-32 32h-96c-19.2 0-32-12.8-32-32v-64h-64c-19.2 0-32-12.8-32-32v-96h704v96c0 19.2-12.8 32-32 32z" />
<glyph unicode="&#xe7f8;" glyph-name="objects-glyph_bear" d="M816 896c-89.6 0-169.6-57.6-198.4-144-32 9.6-67.2 16-105.6 16s-73.6-6.4-105.6-16c-28.8 86.4-108.8 144-198.4 144-115.2 0-208-92.8-208-208 0-83.2 48-156.8 121.6-188.8-16-48-25.6-96-25.6-147.2 0-230.4 185.6-416 416-416s416 185.6 416 416c0 51.2-9.6 99.2-25.6 147.2 73.6 32 121.6 105.6 121.6 188.8 0 115.2-92.8 208-208 208zM320 480c0 35.2 28.8 64 64 64s64-28.8 64-64-28.8-64-64-64-64 28.8-64 64zM608 96h-192c-19.2 0-32 12.8-32 32s12.8 32 32 32h64v54.4l-57.6 86.4c-6.4 9.6-6.4 22.4 0 32s16 16 28.8 16h128c12.8 0 22.4-6.4 28.8-16s6.4-22.4 0-32l-64-86.4v-54.4h64c19.2 0 32-12.8 32-32s-12.8-32-32-32zM640 416c-35.2 0-64 28.8-64 64s28.8 64 64 64 64-28.8 64-64-28.8-64-64-64z" />
<glyph unicode="&#xe7f9;" glyph-name="objects-glyph_billiard" d="M512 960c-281.6 0-512-230.4-512-512s230.4-512 512-512 512 230.4 512 512-230.4 512-512 512zM512 256c-140.8 0-256 115.2-256 256s115.2 256 256 256 256-115.2 256-256-115.2-256-256-256zM588.8 550.4c12.8 16 19.2 35.2 19.2 57.6 0 54.4-41.6 96-96 96s-96-41.6-96-96c0-22.4 6.4-41.6 19.2-57.6-32-22.4-51.2-60.8-51.2-102.4 0-70.4 57.6-128 128-128s128 57.6 128 128c0 41.6-19.2 80-51.2 102.4zM512 640c19.2 0 32-12.8 32-32s-12.8-32-32-32-32 12.8-32 32 12.8 32 32 32zM512 384c-35.2 0-64 28.8-64 64s28.8 64 64 64 64-28.8 64-64-28.8-64-64-64z" />
<glyph unicode="&#xe7fa;" glyph-name="objects-glyph_binocular" d="M32 0h416c19.2 0 32 12.8 32 32v672c0 19.2-12.8 32-32 32h-224c-12.8 0-25.6-9.6-28.8-22.4l-128-384c-3.2-3.2-3.2-6.4-3.2-9.6v-160h-32c-19.2 0-32-12.8-32-32v-96c0-19.2 12.8-32 32-32zM448 896h-128c-19.2 0-32-12.8-32-32v-32c0-19.2 12.8-32 32-32h128c19.2 0 32 12.8 32 32v32c0 19.2-12.8 32-32 32zM992 160h-32v160c0 3.2 0 6.4-3.2 9.6l-128 384c-3.2 12.8-16 22.4-28.8 22.4h-224c-19.2 0-32-12.8-32-32v-672c0-19.2 12.8-32 32-32h416c19.2 0 32 12.8 32 32v96c0 19.2-12.8 32-32 32zM576 896c-19.2 0-32-12.8-32-32v-32c0-19.2 12.8-32 32-32h128c19.2 0 32 12.8 32 32v32c0 19.2-12.8 32-32 32h-128z" />
<glyph unicode="&#xe7fb;" glyph-name="objects-glyph_bow" d="M982.4 470.4l-128 128c-12.8 12.8-32 12.8-44.8 0s-12.8-32 0-44.8l73.6-73.6h-185.6c-6.4 137.6-57.6 268.8-144 377.6 0 0 0 0 0 0-25.6 32-54.4 60.8-86.4 89.6-12.8 12.8-35.2 9.6-44.8-3.2-12.8-16-9.6-35.2 3.2-48 22.4-19.2 44.8-41.6 64-60.8l-198.4-320-38.4 76.8c-6.4 9.6-16 16-28.8 16h-160c-9.6 0-22.4-6.4-28.8-16s-6.4-22.4 0-32l41.6-80h-44.8c-19.2 0-32-12.8-32-32s12.8-32 32-32h44.8l-41.6-83.2c-6.4-9.6-3.2-22.4 0-32 6.4-6.4 19.2-12.8 28.8-12.8h160c12.8 0 22.4 6.4 28.8 19.2l38.4 76.8 198.4-320c-19.2-22.4-38.4-41.6-64-60.8-12.8-12.8-16-32-3.2-44.8 6.4-6.4 16-12.8 25.6-12.8 6.4 0 16 3.2 19.2 6.4 32 25.6 60.8 57.6 86.4 89.6 0 0 0 0 0 0 86.4 105.6 137.6 236.8 144 377.6h185.6l-73.6-73.6c-12.8-12.8-12.8-32 0-44.8 6.4-6.4 16-9.6 22.4-9.6s16 3.2 22.4 9.6l128 128c3.2 3.2 6.4 6.4 6.4 9.6 3.2 6.4 3.2 16 0 25.6 0 0-3.2 3.2-6.4 6.4zM531.2 115.2l-185.6 300.8h288c-6.4-108.8-41.6-211.2-102.4-300.8zM345.6 480l185.6 300.8c60.8-89.6 96-192 102.4-300.8h-288z" />
<glyph unicode="&#xe7fc;" glyph-name="objects-glyph_bowling" d="M512 960c-281.6 0-512-230.4-512-512s230.4-512 512-512 512 230.4 512 512-230.4 512-512 512zM352 448c-35.2 0-64 28.8-64 64s28.8 64 64 64c35.2 0 64-28.8 64-64s-28.8-64-64-64zM512 640c-35.2 0-64 28.8-64 64s28.8 64 64 64c35.2 0 64-28.8 64-64s-28.8-64-64-64zM672 448c-35.2 0-64 28.8-64 64s28.8 64 64 64c35.2 0 64-28.8 64-64s-28.8-64-64-64z" />
<glyph unicode="&#xe7fd;" glyph-name="objects-glyph_broom" d="M416 480h192c19.2 0 32 12.8 32 32v320c0 70.4-57.6 128-128 128s-128-57.6-128-128v-320c0-19.2 12.8-32 32-32zM192-64h128v96h64v-96h96v96h64v-96h96v96h64v-96h128c12.8 0 22.4 6.4 28.8 16s6.4 22.4 0 32l-224 416c-6.4 9.6-16 16-28.8 16h-192c-12.8 0-22.4-6.4-28.8-16l-224-416c-6.4-9.6-6.4-22.4 0-32s16-16 28.8-16z" />
<glyph unicode="&#xe7fe;" glyph-name="objects-glyph_cone" d="M992 0h-73.6l-96 288h-620.8l-96-288h-73.6c-19.2 0-32-12.8-32-32s12.8-32 32-32h864c0 0 0 0 0 0s0 0 0 0h96c19.2 0 32 12.8 32 32s-12.8 32-32 32zM220.8 352h582.4l-54.4 160h-473.6zM576 960h-128c-12.8 0-25.6-9.6-28.8-22.4l-121.6-361.6h428.8l-121.6 361.6c-3.2 12.8-16 22.4-28.8 22.4z" />
<glyph unicode="&#xe7ff;" glyph-name="objects-glyph_controller" d="M480 800v-128c0-19.2 12.8-32 32-32s32 12.8 32 32v128c0 19.2-12.8 32-32 32s-32-12.8-32-32zM774.4 576h-524.8c-137.6 0-249.6-115.2-249.6-256s112-256 249.6-256c92.8 0 176 48 217.6 128h86.4c41.6-80 124.8-128 217.6-128 137.6 0 249.6 115.2 249.6 256s-108.8 256-246.4 256zM352 288h-64v-64c0-19.2-12.8-32-32-32s-32 12.8-32 32v64h-64c-19.2 0-32 12.8-32 32s12.8 32 32 32h64v64c0 19.2 12.8 32 32 32s32-12.8 32-32v-64h64c19.2 0 32-12.8 32-32s-12.8-32-32-32zM713.6 374.4l64 64c12.8 12.8 32 12.8 44.8 0s12.8-32 0-44.8l-64-64c-6.4-6.4-12.8-9.6-22.4-9.6s-16 3.2-22.4 9.6c-12.8 12.8-12.8 32 0 44.8zM854.4 265.6l-64-64c-6.4-6.4-12.8-9.6-22.4-9.6s-16 3.2-22.4 9.6c-12.8 12.8-12.8 32 0 44.8l64 64c12.8 12.8 32 12.8 44.8 0s12.8-32 0-44.8z" />
<glyph unicode="&#xe800;" glyph-name="objects-glyph_diamond" d="M630.4 576h-236.8l118.4-476.8zM979.2 640l-144 227.2-112-227.2zM188.8 867.2l-144-227.2h256zM780.8 896h-217.6l108.8-217.6zM620.8 640l-108.8 217.6-108.8-217.6zM697.6 576l-131.2-528 409.6 528zM48 576l409.6-528-131.2 528zM460.8 896h-217.6l108.8-217.6z" />
<glyph unicode="&#xe801;" glyph-name="objects-glyph_dice" d="M736 672h-704v-672c0-19.2 12.8-32 32-32h672v704zM224 96c-35.2 0-64 28.8-64 64s28.8 64 64 64 64-28.8 64-64-28.8-64-64-64zM224 416c-35.2 0-64 28.8-64 64s28.8 64 64 64 64-28.8 64-64-28.8-64-64-64zM384 256c-35.2 0-64 28.8-64 64s28.8 64 64 64 64-28.8 64-64-28.8-64-64-64zM544 96c-35.2 0-64 28.8-64 64s28.8 64 64 64 64-28.8 64-64-28.8-64-64-64zM544 416c-35.2 0-64 28.8-64 64s28.8 64 64 64 64-28.8 64-64-28.8-64-64-64zM233.6 918.4l-182.4-182.4h704l192 192h-691.2c-9.6 0-16-3.2-22.4-9.6zM800-12.8l182.4 182.4c6.4 6.4 9.6 12.8 9.6 22.4v691.2l-192-192v-704z" />
<glyph unicode="&#xe802;" glyph-name="objects-glyph_globe" d="M166.4 211.2l-60.8-60.8c-12.8-12.8-12.8-32 0-44.8 6.4-6.4 12.8-9.6 22.4-9.6s16 3.2 22.4 9.6l64 64c76.8-60.8 169.6-96 265.6-102.4v-64h-160c-19.2 0-32-12.8-32-32s12.8-32 32-32h384c19.2 0 32 12.8 32 32s-12.8 32-32 32h-160v67.2c249.6 16 448 224 448 476.8 0 108.8-38.4 214.4-105.6 297.6l64 64c12.8 12.8 12.8 32 0 44.8s-32 12.8-44.8 0l-60.8-60.8c-19.2 16-38.4 35.2-57.6 48-16 9.6-35.2 6.4-44.8-6.4-9.6-19.2-6.4-38.4 6.4-48 112-80 179.2-208 179.2-342.4 0-230.4-185.6-416-416-416-147.2 0-284.8 80-361.6 208-9.6 16-28.8 19.2-44.8 12.8-12.8-9.6-19.2-28.8-9.6-44.8 19.2-35.2 44.8-64 70.4-92.8zM512 192c195.2 0 352 156.8 352 352s-156.8 352-352 352-352-156.8-352-352 156.8-352 352-352z" />
<glyph unicode="&#xe803;" glyph-name="objects-glyph_hut" d="M659.2 544l-108.8 188.8 86.4 147.2c6.4 16 3.2 35.2-12.8 44.8-16 6.4-35.2 3.2-44.8-12.8l-67.2-115.2-67.2 115.2c-9.6 16-28.8 19.2-44.8 12.8-16-9.6-19.2-28.8-12.8-44.8l86.4-147.2-108.8-188.8h294.4zM64-64h268.8l150.4 272c12.8 19.2 44.8 19.2 54.4 0l150.4-272h272c12.8 0 22.4 6.4 28.8 16s6.4 22.4 0 32l-291.2 496h-371.2l-291.2-496c-6.4-9.6-6.4-22.4 0-32s16-16 28.8-16z" />
<glyph unicode="&#xe804;" glyph-name="objects-glyph_key-25" d="M844.8 768l105.6 105.6c12.8 12.8 12.8 32 0 44.8s-32 12.8-44.8 0l-460.8-460.8c-44.8 35.2-99.2 54.4-156.8 54.4-67.2 0-131.2-25.6-182.4-73.6-48-51.2-73.6-115.2-73.6-182.4s25.6-131.2 73.6-182.4c51.2-48 115.2-73.6 182.4-73.6s131.2 25.6 182.4 73.6c48 48 73.6 112 73.6 182.4 0 57.6-19.2 112-54.4 156.8l182.4 182.4 137.6-137.6c6.4-6.4 12.8-9.6 22.4-9.6 0 0 0 0 0 0 9.6 0 16 3.2 22.4 9.6l128 131.2c6.4 6.4 9.6 12.8 9.6 22.4s-3.2 16-9.6 22.4l-137.6 134.4z" />
<glyph unicode="&#xe805;" glyph-name="objects-glyph_key-26" d="M992 960h-192c-9.6 0-16-3.2-22.4-9.6l-406.4-403.2c-19.2 3.2-41.6 6.4-60.8 6.4-83.2 0-160-32-217.6-89.6s-89.6-134.4-89.6-217.6 32-160 89.6-217.6c57.6-57.6 134.4-89.6 217.6-89.6s160 32 217.6 89.6c73.6 73.6 102.4 176 83.2 278.4l86.4 86.4c6.4 6.4 9.6 12.8 9.6 22.4v96h96c19.2 0 32 12.8 32 32v96h96c9.6 0 16 3.2 22.4 9.6l64 64c3.2 6.4 6.4 12.8 6.4 22.4v192c0 19.2-12.8 32-32 32zM320 144c-22.4-22.4-48-32-80-32s-57.6 12.8-80 32c-22.4 22.4-32 48-32 80s12.8 57.6 32 80c41.6 41.6 115.2 41.6 156.8 0 22.4-22.4 32-48 32-80s-9.6-57.6-28.8-80z" />
</font>
</defs>
</svg>
